<svg xmlns="http://www.w3.org/2000/svg" style="display: none;" aria-hidden="true">
  <symbol id="passenger-car" viewBox="0 0 512 237">
    <g>
      <path
        d="m110.93 149.83c-23.526 0-42.667 19.14-42.667 42.667 0 23.526 19.14 42.667 42.667 42.667 23.526 0 42.667-19.14 42.667-42.667 0-23.526-19.14-42.667-42.667-42.667zm0 68.267c-14.114 0-25.6-11.486-25.6-25.6s11.486-25.6 25.6-25.6 25.6 11.486 25.6 25.6-11.486 25.6-25.6 25.6z"/>
      <path
        d="m503.47 149.83v-51.2c0-3.669-2.347-6.938-5.837-8.098l-48.145-16.051c-18.133-30.711-43.059-59.938-98.142-69.589-0.102-0.017-0.205-0.034-0.307-0.051-101.73-14.063-178.1 8.883-227.13 68.224-36.497 0.529-73.754 8.158-95.667 22.187-11.349 7.27-18.082 19.925-18.714 33.391l-0.99 21.188c-4.71 0-8.533 3.823-8.533 8.533v34.133c0 4.71 3.823 8.533 8.533 8.533h34.133c4.736 0 8.525-3.891 8.533-8.627 0-0.043 9e-3 -0.085 9e-3 -0.137 0.128-32.879 26.812-59.503 59.725-59.503 32.99 0 59.733 26.743 59.733 59.733-0.614 5.18 3.473 8.533 8.533 8.533h153.6c4.736 0 8.525-3.891 8.533-8.627 0-0.043 8e-3 -0.085 8e-3 -0.137 0.128-32.879 26.812-59.503 59.725-59.503 32.99 0 59.733 26.743 59.733 59.733-0.614 5.18 3.473 8.533 8.533 8.533h34.133c4.71 0 8.533-3.823 8.533-8.533v-34.133c3e-3 -4.709-3.82-8.532-8.53-8.532zm-230.4-81.066c0 2.355-1.911 4.267-4.267 4.267h-111.28c-3.942 0-5.734-4.847-2.825-7.501 29.611-26.991 67.268-42.428 113.67-46.532 2.5-0.222 4.702 1.792 4.702 4.301v45.465zm102.52 0.042c-0.026 2.338-1.929 4.224-4.267 4.224h-76.919c-2.355 0-4.267-1.911-4.267-4.267v-46.592c0-2.364 1.886-4.309 4.241-4.309 17.015-0.017 35.021 1.22 54.161 3.866 9.114 1.604 17.237 3.806 24.627 6.511 1.698 0.623 2.782 2.27 2.765 4.079l-0.341 36.488zm44.536 4.224h-23.202c-2.372 0-4.292-1.937-4.267-4.309l0.222-23.125c0.034-3.524 4.053-5.436 6.895-3.354 9.225 6.741 16.896 14.771 23.731 23.885 2.133 2.841 0.17 6.903-3.379 6.903z"/>
      <path
        d="m401.07 149.83c-23.526 0-42.667 19.14-42.667 42.667 0 23.526 19.14 42.667 42.667 42.667 23.526 0 42.667-19.14 42.667-42.667-1e-3 -23.526-19.141-42.667-42.667-42.667zm0 68.267c-14.114 0-25.6-11.486-25.6-25.6s11.486-25.6 25.6-25.6 25.6 11.486 25.6 25.6-11.486 25.6-25.6 25.6z"/>
    </g>
  </symbol>

  <symbol id="electric-car" viewBox="0 0 337 328">
    <g stroke="null">
      <path
        d="m73.738 268.2c-16.196 0-29.373 13.181-29.373 29.381s13.177 29.381 29.373 29.381 29.373-13.181 29.373-29.381-13.177-29.381-29.373-29.381zm0 39.175c-5.4004 0-9.7912-4.3944-9.7912-9.7937 0-5.4019 4.3907-9.7937 9.7912-9.7937 5.3979 0 9.7912 4.3919 9.7912 9.7937 0 5.3993-4.3933 9.7937-9.7912 9.7937z"/>
      <path
        d="m253.9 268.2c-16.196 0-29.373 13.181-29.373 29.381s13.177 29.381 29.373 29.381 29.373-13.181 29.373-29.381-13.177-29.381-29.373-29.381zm0 39.175c-5.4004 0-9.7912-4.3944-9.7912-9.7937 0-5.4019 4.3907-9.7937 9.7912-9.7937 5.3979 0 9.7912 4.3919 9.7912 9.7937 0 5.3993-4.3933 9.7937-9.7912 9.7937z"/>
      <path
        d="m286.74 219.06h-42.949c-3.7201-5.9757-10.788-16.277-20.929-26.606-20.844-21.235-44.825-32.462-69.349-32.462h-53.255c-17.795 0-34.187 9.6841-42.783 25.267l-18.641 33.801h-11.382c-14.368 0-26.059 11.694-26.059 26.066v52.037c0 5.3993 4.3754 9.7759 9.7733 9.7759h15.215c-0.61705-3.0682-0.94597-6.2384-0.94597-9.4826 0-26.588 21.75-48.221 48.487-48.221 26.734 0 48.487 21.633 48.487 48.221 0 3.2442-0.32892 6.4144-0.94852 9.4826h84.727c-0.61705-3.0682-0.94597-6.2384-0.94597-9.4826 0-26.588 21.75-48.221 48.484-48.221 26.737 0 48.487 21.633 48.487 48.221 0 3.2442-0.32892 6.4144-0.94597 9.4826h24.562c5.3953 0 9.7708-4.3766 9.7708-9.7759v-29.228c0-26.951-21.918-48.874-48.859-48.874zm-157.44 0h-68.14l13.432-24.357c5.1582-9.3525 14.993-15.162 25.671-15.162h29.037v39.519zm19.544 0v-39.517h4.6738c31.089 0 54.323 23.559 66.493 39.517h-71.167z"/>
      <path
        d="m80.551 110.14h39.509c15.837 0 28.721 12.887 28.721 28.728v1.5303h1.4483 18.134v-1.5303c0-26.642-21.668-48.316-48.303-48.316h-39.509c-10.775 0-19.542-8.7685-19.542-19.547s8.7662-19.547 19.542-19.547h130.38c5.4081 0 9.7912-4.3842 9.7912-9.7937s-4.3831-9.7937-9.7912-9.7937h-130.38c-21.574 0-39.124 17.555-39.124 39.134s17.55 39.134 39.124 39.134z"/>
      <path
        d="m296.05 51.688h-19.197v-19.404h19.585c5.4055 0 9.7912-4.3842 9.7912-9.7937s-4.3856-9.7937-9.7912-9.7937h-19.585v-0.73453c0-5.4095-4.3856-9.7937-9.7912-9.7937h-29.279c-16.196 0-29.373 13.181-29.373 29.381v19.633c0 16.2 13.177 29.381 29.373 29.381h29.279c5.2347 0 9.5005-4.1164 9.7657-9.2887h19.223c5.4081 0 9.7912-4.3868 9.7912-9.7937 0-5.4095-4.3831-9.7937-9.7912-9.7937z"/>
    </g>
  </symbol>

  <symbol id="bus" viewBox="0 0 582 327">
    <g transform="matrix(1.6471 0 0 1.6471 14.13 -456.25)">
      <path
        d="m70.87 409.46c-17.985 0-32.562 14.571-32.562 32.559s14.576 32.559 32.562 32.559c17.992 0 32.564-14.57 32.564-32.559s-14.572-32.559-32.564-32.559zm0 46.713c-7.818 0-14.153-6.334-14.153-14.154 0-7.822 6.335-14.154 14.153-14.154 7.819 0 14.159 6.332 14.159 14.154 0 7.82-6.34 14.154-14.159 14.154z"/>
      <path
        d="m262.03 409.46c-17.986 0-32.561 14.571-32.561 32.559s14.574 32.559 32.561 32.559c17.992 0 32.564-14.57 32.564-32.559s-14.572-32.559-32.564-32.559zm0 46.713c-7.818 0-14.154-6.334-14.154-14.154 0-7.822 6.336-14.154 14.154-14.154 7.82 0 14.16 6.332 14.16 14.154 0 7.82-6.34 14.154-14.16 14.154z"/>
      <path
        d="m324.17 277.61h-292.08c-10.701 0-21.207 8.579-23.348 19.064l-11.675 42.618c-2.141 10.485-3.892 27.819-3.892 38.521v44.751c0 10.7 8.756 19.456 19.457 19.456h19.839c0-21.17 17.226-38.395 38.398-38.395 21.174 0 38.401 17.223 38.401 38.395h114.36c0-21.17 17.227-38.395 38.398-38.395 21.176 0 38.402 17.223 38.402 38.395h23.74c10.703 0 19.457-8.754 19.457-19.456v-125.5c5e-3 -10.701-8.751-19.456-19.452-19.456zm-250.14 82.095h-45.344l7.186-17.019c1.254-2.97-0.137-6.394-3.106-7.648-2.972-1.254-6.395 0.138-7.647 3.107l-8.91 21.103c-6.015-1.581-9.676-7.214-8.437-13.89l10.46-41.74c1.465-7.891 9.23-14.348 17.256-14.348h38.543l-1e-3 70.435zm86.583 0h-74.909v-70.435h74.909v70.435zm86.582 0h-74.908v-70.435h74.908v70.435zm84.502-14.592c0 8.026-6.566 14.593-14.594 14.593h-58.234v-70.435h58.234c8.027 0 14.594 6.567 14.594 14.593v41.249z"/>
    </g>
  </symbol>

  <symbol id="truck" viewBox="0 0 612 434">
    <g>
      <path
        d="m21.474 288.95v-260.38c0-14.469 11.729-26.199 26.199-26.199h260.25c14.469 0 26.198 11.73 26.198 26.199v260.38c0 4.823-3.909 8.733-8.733 8.733h-295.18c-4.824 0-8.733-3.91-8.733-8.734zm210.16 89.202c0 30.01-24.329 54.338-54.338 54.338s-54.338-24.328-54.338-54.338c0-30.011 24.329-54.338 54.338-54.338s54.338 24.327 54.338 54.338zm-27.17 0c0-15.005-12.164-27.169-27.169-27.169s-27.17 12.164-27.17 27.169 12.165 27.17 27.17 27.17 27.169-12.165 27.169-27.17zm-73.969-54.339h-121.76c-4.823 0-8.733 3.91-8.733 8.733v26.495c0 4.823 3.91 8.733 8.733 8.733h97.598c2.548-17.484 11.373-32.928 24.164-43.961zm385.44 54.339c0 30.01-24.329 54.338-54.338 54.338-30.01 0-54.338-24.328-54.338-54.338 0-30.011 24.328-54.338 54.338-54.338 30.009-1e-3 54.338 24.327 54.338 54.338zm-27.168 0c0-15.005-12.165-27.169-27.17-27.169-15.006 0-27.169 12.164-27.169 27.169s12.164 27.17 27.169 27.17 27.17-12.165 27.17-27.17zm123.23-45.606v26.495c0 4.823-3.91 8.733-8.733 8.733h-70.704c-5.057-34.683-34.906-61.427-70.961-61.427-36.062 0-65.912 26.745-70.969 61.427h-142.37c-2.549-17.483-11.373-32.928-24.164-43.961h134.99v-249.79c0-9.646 7.82-17.466 17.466-17.466h82.445c23.214 0 44.911 11.531 57.9 30.77l53.15 78.721c7.796 11.547 11.962 25.161 11.962 39.094v118.67h21.253c4.823 0 8.733 3.91 8.733 8.733zm-88.592-164.48l-42.501-60.393c-1.636-2.324-4.3-3.707-7.142-3.707h-66.295c-4.822 0-8.733 3.91-8.733 8.733v60.393c0 4.824 3.91 8.733 8.733 8.733h108.8c7.074 0 11.212-7.973 7.14-13.759z"/>
    </g>
  </symbol>

  <symbol id="moto" viewBox="0 0 337 240">
    <g>
      <path
        d="m287.37 140c-8.0707 0-15.582 2.137-22.311 5.5925l-13.314-15.823c5.903-3.4889 12.288-6.1723 19.038-7.6833 5.5028-1.2391 10.957-1.6932 16.642-1.7778 7.3421 0.056438 14.566-2.8399 19.972-8.1964 5.6387-5.5797 8.8711-13.343 8.8711-22.522 0-50.453-42.503-87.505-87.38-87.505h-11.131c-5.4437 0-9.8511 4.4073-9.8511 9.8511s4.4073 9.8511 9.8511 9.8511h11.131c2.9348 0 5.7336 0.50538 8.571 0.86967v19.035c-5.7208 0.51821-11.108 2.2883-16.206 4.6613-0.064135-0.074396-0.14623-0.12314-0.2078-0.19754-8.0861 3.7814-15.056 9.6946-20.105 17.268l-22.424 33.632c-1.5392 2.2986-3.9635 3.8481-6.7059 4.2714-19.943 3.0656-37.231 15.78-46.31 34.345 8.4145 12.576 13.448 27.557 13.448 43.732h-20.359c0-32.593-26.513-59.106-59.106-59.106s-59.106 26.513-59.106 59.106 26.513 59.106 59.106 59.106c25.651 0 47.316-16.521 55.476-39.404h92.946c5.4437 0 9.8511-4.4073 9.8511-9.8511 0-5.4745 0.65417-11.065 1.9343-16.603 2.6834-11.503 8.6659-21.973 16.696-30.526l13.296 15.8c-7.1138 8.5402-11.567 19.371-11.567 31.328 0 27.157 22.098 49.255 49.255 49.255s49.255-22.098 49.255-49.255-22.098-49.255-49.255-49.255zm-227.89 78.809c-21.731 0-39.404-17.673-39.404-39.404s17.673-39.404 39.404-39.404 39.404 17.673 39.404 39.404h-29.553c-5.4361 0-9.8511-4.415-9.8511-9.8511 0-5.4437-4.4073-9.8511-9.8511-9.8511s-9.8511 4.4073-9.8511 9.8511c0 16.295 13.258 29.553 29.553 29.553h24.074c-6.8342 11.721-19.402 19.702-33.925 19.702zm227.89 0c-16.295 0-29.553-13.258-29.553-29.553 0-5.708 1.7009-10.995 4.5151-15.521l17.342 21.678c3.4248 4.2714 9.6279 4.9153 13.853 1.5392 4.2431-3.4068 4.9358-9.5997 1.5392-13.853l-17.321-21.652c3.0323-1.0544 6.2365-1.7445 9.6253-1.7445 16.295 0 29.553 13.258 29.553 29.553s-13.258 29.553-29.553 29.553z"/>
      <path
        d="m167.67 77.812l16.878-25.318c5.395-8.0964 12.47-14.674 20.508-19.782-10.811-6.8265-23.273-10.926-36.554-10.926-23.276 0-44.776 11.865-57.431 30.892l15.757 9.456c12.658 7.5935 26.518 12.678 40.844 15.677z"/>
      <path
        d="m116.69 79.025l-63.216-37.537h-43.245c-5.4437 0-9.8511 4.4073-9.8511 9.8511 0 27.157 22.098 49.255 49.255 49.255 19.705 0 40.146 0.42842 62.046 19.466 0.084658-0.15649 0.084658-0.3335 0.17958-0.48486 7.6423-12.288 18.432-21.816 30.803-28.512-8.9558-3.276-17.724-7.0933-25.972-12.039z"/>
    </g>
  </symbol>

  <symbol id="trailer" viewBox="0 0 492 289">
    <g>
      <path
        d="m275.5 204c-11.667 0-21.5 4-29.5 12s-12 18-12 30 4 22 12 30 17.833 12 29.5 12 21.5-4 29.5-12 12-18 12-30-4-22-12-30-17.833-12-29.5-12zm16 57.5c-4.333 4.333-9.667 6.5-16 6.5s-11.667-2.167-16-6.5-6.5-9.5-6.5-15.5 2.167-11.167 6.5-15.5c4.335-4.333 9.669-6.5 16-6.5 6.334 0 11.667 2.167 16 6.5s6.5 9.5 6.5 15.5-2.167 11.167-6.5 15.5z"/>
      <path
        d="m479.5 39c-7.667-10-18.167-17.333-31.5-22-8-2.667-31.333-5.833-70-9.5s-73-5.5-103-5.5c-28.667 0-63.5 1.833-104.5 5.5s-65.5 6.5-73.5 8.5l-6 2c-2 0.667-5.667 2.667-11 6s-10 7-14 11-7.667 9.833-11 17.5-5 16.167-5 25.5v129c0 13.333 3 20 9 20h-60v20h225c0-14.667 5-27 15-37s22.333-15 37-15 27 5 37 15 15 22.333 15 37h125c10 0 18.833-4 26.5-12s11.5-17.333 11.5-28v-136c0-11.333-3.833-22-11.5-32zm-285.5 79c0 4.667-2.333 7-7 7h-67c-5.333 0-8-2-8-6v-48c0-2 0.833-3.833 2.5-5.5s3.5-2.5 5.5-2.5h67c4.667 0 7 2.667 7 8v47zm246 1c0 4-2.667 6-8 6h-149c-4.667 0-7-2-7-6v-48c0-5.333 2.333-8 7-8h149c5.333 0 8 2.667 8 8v48z"/>
    </g>
  </symbol>

  <symbol id="phys" viewBox="0 0 482.9 482.9">
    <path
      d="m239.7 260.2h1.6 0.6 1c29.3-0.5 53-10.8 70.5-30.5 38.5-43.4 32.1-117.8 31.4-124.9-2.5-53.3-27.7-78.8-48.5-90.7-15.5-8.9-33.6-13.7-53.8-14.1h-0.7-0.4-0.6c-11.1 0-32.9 1.8-53.8 13.7-21 11.9-46.6 37.4-49.1 91.1-0.7 7.1-7.1 81.5 31.4 124.9 17.4 19.7 41.1 30 70.4 30.5zm-75.1-152.9c0-0.3 0.1-0.6 0.1-0.8 3.3-71.7 54.2-79.4 76-79.4h0.4 0.8c27 0.6 72.9 11.6 76 79.4 0 0.3 0 0.6 0.1 0.8 0.1 0.7 7.1 68.7-24.7 104.5-12.6 14.2-29.4 21.2-51.5 21.4h-0.5-0.5c-22-0.2-38.9-7.2-51.4-21.4-31.7-35.6-24.9-103.9-24.8-104.5z"/>
    <path
      d="m446.8 383.6v-0.3c0-0.8-0.1-1.6-0.1-2.5-0.6-19.8-1.9-66.1-45.3-80.9-0.3-0.1-0.7-0.2-1-0.3-45.1-11.5-82.6-37.5-83-37.8-6.1-4.3-14.5-2.8-18.8 3.3s-2.8 14.5 3.3 18.8c1.7 1.2 41.5 28.9 91.3 41.7 23.3 8.3 25.9 33.2 26.6 56 0 0.9 0 1.7 0.1 2.5 0.1 9-0.5 22.9-2.1 30.9-16.2 9.2-79.7 41-176.3 41-96.2 0-160.1-31.9-176.4-41.1-1.6-8-2.3-21.9-2.1-30.9 0-0.8 0.1-1.6 0.1-2.5 0.7-22.8 3.3-47.7 26.6-56 49.8-12.8 89.6-40.6 91.3-41.7 6.1-4.3 7.6-12.7 3.3-18.8s-12.7-7.6-18.8-3.3c-0.4 0.3-37.7 26.3-83 37.8-0.4 0.1-0.7 0.2-1 0.3-43.4 14.9-44.7 61.2-45.3 80.9 0 0.9 0 1.7-0.1 2.5v0.3c-0.1 5.2-0.2 31.9 5.1 45.3 1 2.6 2.8 4.8 5.2 6.3 3 2 74.9 47.8 195.2 47.8s192.2-45.9 195.2-47.8c2.3-1.5 4.2-3.7 5.2-6.3 5-13.3 4.9-40 4.8-45.2z"/>
  </symbol>

  <symbol id="entity" viewBox="0 0 480 480">
    <rect x="168" y="160" width="16" height="16"/>
    <rect x="168" y="192" width="16" height="16"/>
    <rect x="168" y="224" width="16" height="16"/>
    <rect x="168" y="256" width="16" height="16"/>
    <rect x="200" y="160" width="16" height="16"/>
    <rect x="200" y="192" width="16" height="16"/>
    <rect x="200" y="224" width="16" height="16"/>
    <rect x="200" y="256" width="16" height="16"/>
    <rect x="232" y="160" width="16" height="16"/>
    <rect x="232" y="192" width="16" height="16"/>
    <rect x="232" y="224" width="16" height="16"/>
    <rect x="232" y="256" width="16" height="16"/>
    <rect x="264" y="160" width="16" height="16"/>
    <rect x="200" y="128" width="16" height="16"/>
    <rect x="232" y="128" width="16" height="16"/>
    <rect x="264" y="128" width="16" height="16"/>
    <rect x="264" y="192" width="16" height="16"/>
    <rect x="264" y="224" width="16" height="16"/>
    <rect x="264" y="256" width="16" height="16"/>
    <rect x="296" y="160" width="16" height="16"/>
    <rect x="296" y="192" width="16" height="16"/>
    <rect x="296" y="224" width="16" height="16"/>
    <rect x="296" y="256" width="16" height="16"/>
    <path
      d="m472.01 120h-9e-3 -120v-112c3e-3 -4.416-3.575-7.997-7.991-8h-9e-3 -208c-4.416-3e-3 -7.997 3.575-8 7.991v9e-3 112h-120c-4.416-3e-3 -7.997 3.575-8 7.991v9e-3 288c-3e-3 4.416 3.575 7.997 7.991 8h9e-3 16.723c-0.464 2.642-0.706 5.318-0.723 8v40c-3e-3 4.416 3.575 7.997 7.991 8h9e-3 416c4.416 3e-3 7.997-3.575 8-7.991v-9e-3 -40c-0.016-2.682-0.258-5.358-0.723-8h16.723c4.416 3e-3 7.997-3.575 8-7.991v-9e-3 -288c3e-3 -4.416-3.575-7.997-7.991-8zm-128.01 224c0 8.837-7.163 16-16 16s-16-7.163-16-16 7.163-16 16-16c8.832 0.011 15.989 7.168 16 16zm-192-16c8.837 0 16 7.163 16 16s-7.163 16-16 16-16-7.163-16-16c0.011-8.832 7.168-15.989 16-16zm-48 136h-64v-32c0-17.673 14.327-32 32-32s32 14.327 32 32v32zm-48-96c0-8.837 7.163-16 16-16s16 7.163 16 16-7.163 16-16 16c-8.832-0.011-15.989-7.168-16-16zm49.212 29.425c-3.017-2.91-6.4-5.414-10.064-7.449 12.202-12.784 11.731-33.04-1.053-45.243s-33.04-11.731-45.243 1.053c-11.803 12.365-11.803 31.824 0 44.189-7.636 4.238-13.98 10.467-18.358 18.024h-14.494v-272h112v187.06c-10.986 12.327-10.615 31.039 0.852 42.92-12 6.637-20.599 18.077-23.64 31.449zm78.788 66.575h-64v-56c0-17.673 14.327-32 32-32s32 14.327 32 32v56zm96 0h-80v-56c0-22.091 17.909-40 40-40s40 17.909 40 40v56zm-64-136c0-13.255 10.745-24 24-24s24 10.745 24 24-10.745 24-24 24c-13.249-0.014-23.986-10.751-24-24zm72.722 52.495c-5.357-9.444-13.327-17.139-22.953-22.16 16.897-14.232 19.057-39.467 4.826-56.364-14.232-16.897-39.467-19.057-56.364-4.826-16.897 14.232-19.057 39.467-4.826 56.364 1.468 1.743 3.082 3.357 4.826 4.826-9.626 5.021-17.596 12.716-22.953 22.16-4.206-6-9.722-10.965-16.13-14.519 12.265-12.547 12.037-32.662-0.511-44.927-8.079-7.898-19.744-10.91-30.637-7.913v-297.14h192v297.14c-2.607-0.719-5.296-1.101-8-1.136-17.626-0.047-31.953 14.204-32 31.831-0.022 8.248 3.151 16.185 8.852 22.145-6.408 3.554-11.924 8.519-16.13 14.519zm71.278 51.505v32h-64v-56c0-17.673 14.327-32 32-32s32 14.327 32 32v24zm80 32h-64v-32c0-17.673 14.327-32 32-32s32 14.327 32 32v32zm-48-96c0-8.837 7.163-16 16-16s16 7.163 16 16-7.163 16-16 16c-8.832-0.011-15.989-7.168-16-16zm72 40h-14.494c-4.378-7.557-10.722-13.786-18.358-18.024 12.202-12.784 11.731-33.04-1.053-45.243-12.784-12.202-33.04-11.731-45.243 1.053-11.803 12.365-11.803 31.824 0 44.189-3.664 2.035-7.048 4.539-10.064 7.449-3.04-13.372-11.64-24.812-23.64-31.449 11.467-11.881 11.839-30.593 0.853-42.92v-187.06h112v272z"/>
    <rect x="376" y="184" width="16" height="128"/>
    <rect x="424" y="184" width="16" height="128"/>
    <rect x="40" y="184" width="16" height="128"/>
    <rect x="88" y="184" width="16" height="128"/>
    <path
      d="m288.01 32h-9e-3 -96c-4.416-3e-3 -7.997 3.575-8 7.991v9e-3 64c-3e-3 4.416 3.575 7.997 7.991 8h9e-3 96c4.416 3e-3 7.997-3.575 8-7.991v-9e-3 -64c3e-3 -4.416-3.575-7.997-7.991-8zm-8.009 64h-80v-48h80v48z"/>
  </symbol>

  <symbol id="not-taxi" viewBox="0 0 510 510">
    <g stroke="null">
      <path
        d="m434.06 173.76c-1.7565 0-3.5593 0.25044-5.3587 0.74789l-18.908 5.2078-19.987-48.683c-5.9883-14.591-23.694-26.463-39.468-26.463h-13.299v-40.36c0-7.0946-5.7704-12.865-12.865-12.865h-136.35c-7.0946 0-12.865 5.7704-12.865 12.865v40.36h-13.573c-15.773 0-33.48 11.87-39.468 26.461l-19.96 48.616-18.661-5.1409c-1.7994-0.49573-3.6039-0.74789-5.3587-0.74789-9.6213 0.001715-16.606 7.3537-16.606 17.481v10.347c0 11.824 9.6196 21.442 21.442 21.442h1.3757l-2.8543 6.9506c-5.5646 13.556-10.093 36.508-10.093 51.16v97.124c0 11.824 9.6179 21.442 21.442 21.442h25.776c11.824 0 21.442-9.6179 21.442-21.442v-23.871h232v23.871c0 11.824 9.6196 21.442 21.442 21.442h25.771c11.824 0 21.442-9.6179 21.442-21.442v-97.124c0-14.652-4.5285-37.604-10.093-51.16l-2.8543-6.9506h1.6519c11.824 0 21.442-9.6179 21.442-21.442v-10.347c0-10.127-6.9831-17.479-16.604-17.479h-0.001715zm-126.38-105.26c0-0.28303 0.23157-0.5146 0.5146-0.5146h9.9112c0.28303 0 0.5146 0.23157 0.5146 0.5146v35.674c0 0.17153-0.097774 0.30018-0.22642 0.39453h-10.488c-0.12865-0.094344-0.22642-0.22299-0.22642-0.39453v-35.674zm-71.084-0.5146h11.91c0.28303 0 0.60037 0.21442 0.705 0.47858l14.136 35.535 12.958-16.03c0.1784-0.21956 0.19555-0.59351 0.039453-0.82851l-12.436-18.726c-0.15781-0.23672-0.053176-0.42884 0.22986-0.42884h11.014c0.28303 0 0.63639 0.19726 0.78391 0.43741l6.4102 10.398c0.14752 0.24186 0.3911 0.24186 0.53862 0l6.4154-10.398c0.14752-0.24186 0.50088-0.43741 0.78391-0.43741h11.019c0.28303 0 0.38595 0.19212 0.22986 0.42884l-12.447 18.726c-0.15781 0.23672-0.13894 0.60895 0.037737 0.82851l13.194 16.32c0.089198 0.10807 0.10978 0.20927 0.07719 0.28132h-11.695c-0.15438-0.080621-0.29332-0.18869-0.37394-0.31734l-7.2404-11.587c-0.15095-0.24015-0.39453-0.24015-0.54548 0l-7.225 11.587c-0.080621 0.12865-0.21956 0.23672-0.37394 0.31734h-22.037c-0.15095-0.089198-0.28132-0.2127-0.33106-0.3688l-2.4289-7.4377c-0.087482-0.26931-0.3911-0.48887-0.67413-0.48887h-13.5c-0.28303 0-0.59179 0.21785-0.68442 0.48544l-2.6176 7.4446c-0.054891 0.15438-0.18526 0.27788-0.33792 0.36537h-10.599c-0.084052-0.087482-0.12007-0.20756-0.060037-0.35679l14.416-35.748c0.10807-0.26588 0.4254-0.4803 0.70844-0.4803zm-34.856 36.189v-28.337c0-0.28303-0.23157-0.5146-0.5146-0.5146h-11.913c-0.28303 0-0.5146-0.23157-0.5146-0.5146v-6.309c0-0.28303 0.23157-0.5146 0.5146-0.5146h35.868c0.28303 0 0.5146 0.23157 0.5146 0.5146v6.309c0 0.28303-0.23157 0.5146-0.5146 0.5146h-11.982c-0.28303 0-0.5146 0.23157-0.5146 0.5146v28.337c0 0.17153-0.097774 0.30018-0.22642 0.39453h-10.491c-0.12865-0.092628-0.22642-0.22299-0.22642-0.39453zm-84.628 106.9l30.37-73.981c3.5833-8.7276 14.234-15.869 23.668-15.869h169.43c9.4344 0 20.085 7.141 23.668 15.869l30.37 73.981c3.5833 8.7276-1.2042 15.869-10.639 15.869h-256.22c-9.4344 0-14.222-7.141-10.639-15.869h-0.006861zm68.607 95.273c0 4.7172-3.8595 8.5767-8.5767 8.5767h-57.968c-4.7172 0-8.5767-3.8595-8.5767-8.5767v-27.5c0-4.7172 3.8595-8.5767 8.5767-8.5767h57.968c4.7172 0 8.5767 3.8595 8.5767 8.5767v27.5zm214.86 0c0 4.7172-3.8595 8.5767-8.5767 8.5767h-57.968c-4.7172 0-8.5767-3.8595-8.5767-8.5767v-27.5c0-4.7172 3.8595-8.5767 8.5767-8.5767h57.968c4.7172 0 8.5767 3.8595 8.5767 8.5767v27.5z"/>
      <path
        d="m246.86 88.939c0.28303 0 0.42197-0.2127 0.31048-0.47172l-4.2746-9.8649c-0.11321-0.25902-0.3019-0.26245-0.41854-0.005146l-4.5268 9.8752c-0.11664 0.2573 0.017153 0.46657 0.30018 0.46657h8.6093z"/>
    </g>
    <g stroke="null">
      <path
        d="m435.41 75.295c-99.472-99.081-261.34-99.081-360.81 0-99.481 99.091-99.481 260.31 0 359.4 49.731 49.536 115.07 74.323 180.41 74.323s130.67-24.778 180.41-74.323c99.472-99.091 99.472-260.32 0-359.4zm-346.94 13.821c45.914-45.734 106.22-68.605 166.53-68.605 57.228 0 114.31 20.858 159.24 62.037l-332.36 331.05c-84.909-91.907-82.888-235.36 6.5843-324.49zm333.06 331.75c-89.482 89.131-233.49 91.145-325.77 6.5585l332.36-331.04c84.919 91.907 82.898 235.36-6.5843 324.49z"
        stroke="null"/>
    </g>
  </symbol>

  <symbol id="taxi" viewBox="0 0 226.969 226.969">
    <path
      d="m217.29 83.307c-1.024 0-2.075 0.146-3.124 0.436l-11.023 3.036-11.652-28.381c-3.491-8.506-13.813-15.427-23.009-15.427h-7.753v-23.529c0-4.136-3.364-7.5-7.5-7.5h-79.486c-4.136 0-7.5 3.364-7.5 7.5v23.529h-7.913c-9.195 0-19.518 6.92-23.009 15.426l-11.636 28.342-10.879-2.997c-1.049-0.289-2.101-0.436-3.124-0.436-5.609 1e-3 -9.681 4.287-9.681 10.191v6.032c0 6.893 5.608 12.5 12.5 12.5h0.802l-1.664 4.052c-3.244 7.903-5.884 21.283-5.884 29.825v56.621c0 6.893 5.607 12.5 12.5 12.5h15.027c6.893 0 12.5-5.607 12.5-12.5v-13.916h135.25v13.916c0 6.893 5.608 12.5 12.5 12.5h15.024c6.893 0 12.5-5.607 12.5-12.5v-56.621c0-8.542-2.64-21.922-5.884-29.825l-1.664-4.052h0.963c6.893 0 12.5-5.607 12.5-12.5v-6.032c0-5.904-4.071-10.19-9.68-10.19zm-73.677-61.363c0-0.165 0.135-0.3 0.3-0.3h5.778c0.165 0 0.3 0.135 0.3 0.3v20.797c0 0.1-0.057 0.175-0.132 0.23h-6.114c-0.075-0.055-0.132-0.13-0.132-0.23v-20.797zm-41.44-0.3h6.943c0.165 0 0.35 0.125 0.411 0.279l8.241 20.716 7.554-9.345c0.104-0.128 0.114-0.346 0.023-0.483l-7.25-10.917c-0.092-0.138-0.031-0.25 0.134-0.25h6.421c0.165 0 0.371 0.115 0.457 0.255l3.737 6.062c0.086 0.141 0.228 0.141 0.314 0l3.74-6.062c0.086-0.141 0.292-0.255 0.457-0.255h6.424c0.165 0 0.225 0.112 0.134 0.25l-7.256 10.917c-0.092 0.138-0.081 0.355 0.022 0.483l7.692 9.514c0.052 0.063 0.064 0.122 0.045 0.164h-6.818c-0.09-0.047-0.171-0.11-0.218-0.185l-4.221-6.755c-0.088-0.14-0.23-0.14-0.318 0l-4.212 6.755c-0.047 0.075-0.128 0.138-0.218 0.185h-12.847c-0.088-0.052-0.164-0.124-0.193-0.215l-1.416-4.336c-0.051-0.157-0.228-0.285-0.393-0.285h-7.87c-0.165 0-0.345 0.127-0.399 0.283l-1.526 4.34c-0.032 0.09-0.108 0.162-0.197 0.213h-6.179c-0.049-0.051-0.07-0.121-0.035-0.208l8.404-20.84c0.063-0.155 0.248-0.28 0.413-0.28zm-20.32 21.097v-16.52c0-0.165-0.135-0.3-0.3-0.3h-6.945c-0.165 0-0.3-0.135-0.3-0.3v-3.678c0-0.165 0.135-0.3 0.3-0.3h20.91c0.165 0 0.3 0.135 0.3 0.3v3.678c0 0.165-0.135 0.3-0.3 0.3h-6.985c-0.165 0-0.3 0.135-0.3 0.3v16.52c0 0.1-0.057 0.175-0.132 0.23h-6.116c-0.075-0.054-0.132-0.13-0.132-0.23zm-49.336 62.321l17.705-43.129c2.089-5.088 8.298-9.251 13.798-9.251h98.772c5.5 0 11.709 4.163 13.798 9.251l17.705 43.129c2.089 5.088-0.702 9.251-6.202 9.251h-149.37c-5.5 0-8.291-4.163-6.202-9.251zm39.996 55.542c0 2.75-2.25 5-5 5h-33.794c-2.75 0-5-2.25-5-5v-16.032c0-2.75 2.25-5 5-5h33.794c2.75 0 5 2.25 5 5v16.032zm125.26 0c0 2.75-2.25 5-5 5h-33.794c-2.75 0-5-2.25-5-5v-16.032c0-2.75 2.25-5 5-5h33.794c2.75 0 5 2.25 5 5v16.032z"/>
    <path
      d="m108.16 33.858c0.165 0 0.246-0.124 0.181-0.275l-2.492-5.751c-0.066-0.151-0.176-0.153-0.244-3e-3l-2.639 5.757c-0.068 0.15 0.01 0.272 0.175 0.272h5.019z"/>
  </symbol>

  <symbol id="otk" viewBox="0 0 480.204 480.204">
    <path
      d="m475.07 375.83l-11.047-4.875c-0.43-1.547-0.898-3.031-1.398-4.477l6.156-10.609c1.414-2.446 1.438-5.454 0.063-7.922-3.238-5.767-7.1-11.161-11.516-16.086-1.935-2.177-4.905-3.122-7.742-2.461l-11.625 2.656c-1.141-0.891-2.313-1.755-3.516-2.594l-1.125-12.328c-0.258-2.845-2.016-5.335-4.609-6.531-5.93-2.77-12.154-4.859-18.555-6.227-2.852-0.608-5.808 0.393-7.703 2.609l-8.141 9.453h-3.906l-8.141-9.453c-1.89-2.224-4.851-3.227-7.703-2.609-6.4 1.368-12.625 3.456-18.555 6.227-2.594 1.196-4.351 3.687-4.609 6.531l-1.125 12.328c-1.203 0.836-2.375 1.7-3.516 2.594l-11.625-2.656c-2.837-0.657-5.805 0.287-7.742 2.461-4.417 4.924-8.276 10.322-11.508 16.094-1.375 2.465-1.352 5.471 0.062 7.914l6.148 10.602c-0.5 1.445-0.966 2.94-1.398 4.484l-11.047 4.875c-2.902 1.277-4.775 4.149-4.773 7.32v18.109c-2e-3 3.171 1.871 6.043 4.773 7.32l11.047 4.875c0.43 1.547 0.898 3.031 1.398 4.477l-6.156 10.61c-1.414 2.445-1.438 5.454-0.063 7.922 3.238 5.767 7.1 11.161 11.516 16.086 1.937 2.178 4.911 3.123 7.75 2.461l11.609-2.664c1.141 0.898 2.32 1.766 3.523 2.602l1.125 12.328c0.258 2.845 2.016 5.335 4.609 6.531 5.93 2.77 12.154 4.859 18.555 6.227 2.852 0.606 5.807-0.395 7.703-2.609l8.141-9.453h3.906l8.141 9.453c1.519 1.767 3.733 2.783 6.063 2.781 0.551 1e-3 1.101-0.057 1.641-0.172 6.401-1.368 12.625-3.456 18.555-6.227 2.594-1.196 4.351-3.687 4.609-6.531l1.125-12.328c1.203-0.836 2.375-1.701 3.516-2.594l11.625 2.656c2.837 0.662 5.808-0.283 7.742-2.461 4.415-4.924 8.277-10.319 11.516-16.086 1.375-2.468 1.351-5.476-0.063-7.922l-6.156-10.609c0.5-1.445 0.969-2.93 1.398-4.477l11.047-4.875c2.902-1.277 4.775-4.149 4.773-7.32v-18.11c3e-3 -3.17-1.87-6.043-4.772-7.32zm-21.078 24.563c-2.318 1.019-4.014 3.077-4.57 5.547-0.731 3.295-1.74 6.523-3.016 9.648-0.954 2.306-0.781 4.925 0.469 7.086l5.695 9.813c-1.289 2-2.68 3.948-4.172 5.844l-10.719-2.453c-2.509-0.586-5.146 0.084-7.07 1.797-2.492 2.186-5.162 4.159-7.984 5.898-2.14 1.322-3.535 3.573-3.766 6.078l-1.039 11.422c-2.148 0.844-4.305 1.578-6.453 2.188l-7.328-8.508c-1.52-1.765-3.733-2.78-6.062-2.781h-11.234c-2.329 1e-3 -4.542 1.017-6.062 2.781l-7.328 8.508c-2.148-0.609-4.305-1.344-6.453-2.188l-1.039-11.422c-0.231-2.505-1.625-4.756-3.766-6.078-2.821-1.737-5.489-3.711-7.977-5.898-1.934-1.708-4.571-2.38-7.086-1.805l-10.711 2.453c-1.492-1.883-2.883-3.836-4.172-5.836l5.695-9.813c1.249-2.161 1.423-4.779 0.469-7.086-1.276-3.125-2.285-6.353-3.016-9.648-0.557-2.47-2.253-4.528-4.57-5.547l-9.852-4.344v-7.688l9.852-4.344c2.318-1.019 4.014-3.077 4.57-5.547 0.732-3.3 1.741-6.533 3.016-9.664 0.954-2.304 0.781-4.92-0.469-7.078l-5.688-9.813c1.281-1.992 2.672-3.945 4.164-5.836l10.719 2.453c2.509 0.577 5.142-0.092 7.07-1.797 2.492-2.186 5.162-4.159 7.984-5.898 2.14-1.322 3.535-3.573 3.766-6.078l1.039-11.422c2.148-0.844 4.305-1.578 6.453-2.188l7.328 8.508c1.52 1.765 3.733 2.78 6.063 2.781h11.234c2.329-1e-3 4.542-1.017 6.063-2.781l7.328-8.508c2.148 0.609 4.305 1.344 6.453 2.188l1.039 11.422c0.231 2.505 1.626 4.756 3.766 6.078 2.822 1.739 5.492 3.712 7.984 5.898 1.928 1.706 4.562 2.375 7.07 1.797l10.719-2.453c1.492 1.891 2.883 3.838 4.172 5.844l-5.695 9.813c-1.249 2.161-1.423 4.779-0.469 7.086 1.276 3.125 2.285 6.353 3.016 9.648 0.557 2.47 2.253 4.528 4.57 5.547l9.852 4.344v7.688l-9.852 4.344z"/>
    <path
      d="m392.36 352.2c-22.091 0-40 17.909-40 40s17.909 40 40 40 40-17.909 40-40c-0.026-22.08-17.919-39.974-40-40zm0 64c-13.255 0-24-10.745-24-24s10.745-24 24-24 24 10.745 24 24c-0.015 13.249-10.751 23.986-24 24z"/>
    <path
      d="m224.36 32.201c-66.274 0-120 53.726-120 120 0.072 66.244 53.756 119.93 120 120 66.274 0 120-53.726 120-120s-53.726-120-120-120zm-99.677 149.65c-16.385-55.039 14.95-112.94 69.989-129.33 9.635-2.868 19.635-4.324 29.688-4.322 10.041 9e-3 20.027 1.479 29.645 4.362-1.954 1.288-3.986 2.534-5.793 3.896-2.737 2.061-3.858 5.636-2.789 8.891l3.672 11.18c-1.508 1.422-2.984 2.898-4.406 4.406l-11.172-3.672c-3.251-1.051-6.811 0.064-8.883 2.781-5.911 7.763-10.852 16.218-14.711 25.18-1.344 3.152-0.53 6.809 2.023 9.094l8.898 7.969c-0.609 1.992-1.148 4-1.625 6.008l-11.594 2.438c-3.701 0.78-6.351 4.045-6.352 7.828v27.281c1e-3 3.783 2.65 7.048 6.352 7.828l11.594 2.438c0.477 2.008 1.016 4.016 1.617 6.008l-8.891 7.969c-2.553 2.285-3.367 5.942-2.023 9.094 3.859 8.956 8.794 17.408 14.695 25.172 2.061 2.737 5.636 3.859 8.891 2.789l11.18-3.672c1.422 1.508 2.898 2.984 4.406 4.406l-3.672 11.172c-1.066 3.251 0.051 6.82 2.781 8.883 1.808 1.366 3.846 2.618 5.805 3.91-55.039 16.384-112.94-14.951-129.32-69.991zm147.88 62.422c-3.465-1.768-6.834-3.719-10.093-5.843l3.461-10.531c1.016-3.097 0.055-6.501-2.43-8.609-3.691-3.122-7.117-6.545-10.242-10.234-2.111-2.476-5.508-3.432-8.602-2.422l-10.563 3.477c-2.623-3.854-4.985-7.878-7.07-12.047l8.391-7.523c2.429-2.174 3.297-5.604 2.195-8.672-1.64-4.53-2.897-9.19-3.758-13.93-0.579-3.203-3.041-5.737-6.227-6.406l-10.352-2.18v-14.297l10.352-2.18c3.186-0.67 5.648-3.203 6.227-6.406 0.864-4.745 2.121-9.409 3.758-13.946 1.102-3.066 0.233-6.493-2.195-8.664l-8.391-7.515c2.087-4.168 4.449-8.193 7.07-12.047l10.57 3.477c3.097 1.008 6.496 0.049 8.609-2.43 3.122-3.691 6.545-7.117 10.234-10.242 2.479-2.11 3.436-5.509 2.422-8.602l-3.461-10.531c3.26-2.12 6.628-4.068 10.091-5.836 10.938 5.775 20.763 13.445 29.02 22.655-38.337 10.306-61.061 49.739-50.755 88.076 6.656 24.759 25.996 44.099 50.755 50.755-8.254 9.208-18.079 16.878-29.016 22.653zm-7.632-100.03c3.531-24.539 22.809-43.817 47.348-47.348 21.443 33.752 21.443 76.858 0 110.61-30.545-4.394-51.743-32.718-47.348-63.262z"/>
    <path
      d="m435.12 136.73l-9.594-4.234c-0.328-1.148-0.672-2.273-1.047-3.375l5.352-9.227c1.414-2.443 1.438-5.449 0.063-7.914-2.939-5.24-6.444-10.142-10.453-14.617-1.939-2.182-4.915-3.129-7.758-2.469l-10.078 2.305c-0.852-0.656-1.719-1.297-2.602-1.914l-0.984-10.727c-0.266-2.838-2.017-5.321-4.602-6.523-5.389-2.523-11.048-4.424-16.867-5.664-2.758-0.581-5.618 0.337-7.523 2.414l-8.83 9.595c-37.267-75.115-128.37-105.8-203.49-68.53s-105.8 128.37-68.531 203.49c2.227 4.489 4.675 8.865 7.335 13.112l-21.401 26.75c-1.36 1.709-1.967 3.897-1.68 6.062 0.286 2.169 1.453 4.124 3.227 5.406l17.374 12.635-90.882 111.85c-2.787 3.439-2.258 8.486 1.181 11.273 0.01 8e-3 0.02 0.016 0.029 0.024l40 32c3.435 2.741 8.436 2.204 11.211-1.203l92.908-114.34 16.178 11.766c3.457 2.515 8.281 1.868 10.953-1.469l24.962-31.205c65.836 11.411 131.3-22.019 160.65-82.043l8.751 9.63c1.517 1.668 3.667 2.618 5.922 2.617 0.551 1e-3 1.101-0.057 1.641-0.172 5.822-1.24 11.484-3.141 16.875-5.664 2.584-1.202 4.336-3.686 4.602-6.523l0.984-10.727c0.883-0.625 1.75-1.266 2.594-1.914l10.086 2.305c2.843 0.665 5.822-0.283 7.758-2.469 4.005-4.474 7.507-9.373 10.445-14.609 1.381-2.465 1.361-5.476-0.055-7.922l-5.352-9.227c0.375-1.102 0.719-2.227 1.047-3.375l9.594-4.234c2.902-1.277 4.775-4.149 4.773-7.32v-16.297c2e-3 -3.17-1.87-6.042-4.773-7.319zm-387.96 284.26l-27.508-22.008 86.344-106.26 28.523 20.75-87.359 107.52zm119.73-103.76l-16.133-11.734-0.91-0.662-58.004-42.189 13.242-16.542c19.647 24.952 46.603 43.136 77.097 52.008l-15.292 19.119zm57.477-29.039c-75.111 0-136-60.889-136-136 0.084-75.076 60.924-135.92 136-136 75.111 0 136 60.889 136 136s-60.889 136-136 136zm199.53-133.06l-8.383 3.695c-2.318 1.019-4.014 3.077-4.57 5.547-0.651 2.929-1.545 5.798-2.672 8.578-0.954 2.301-0.78 4.915 0.469 7.07l4.875 8.406c-0.977 1.492-2.021 2.953-3.133 4.383l-9.141-2.094c-2.51-0.589-5.15 0.078-7.078 1.789-2.214 1.945-4.587 3.701-7.094 5.25-2.13 1.323-3.518 3.566-3.75 6.063l-0.898 9.789c-1.633 0.633-3.271 1.188-4.914 1.664l-10.445-11.498c12.288-33.339 12.27-69.969-0.05-103.3l10.472-11.371c1.641 0.477 3.297 1.039 4.938 1.672l0.898 9.789c0.233 2.5 1.624 4.747 3.758 6.07 2.506 1.544 4.877 3.297 7.086 5.242 1.93 1.707 4.568 2.374 7.078 1.789l9.141-2.094c1.109 1.43 2.154 2.891 3.133 4.383l-4.875 8.406c-1.249 2.155-1.422 4.769-0.469 7.07 1.127 2.78 2.021 5.65 2.672 8.578 0.557 2.47 2.253 4.528 4.57 5.547l8.383 3.695v5.877z"/>
  </symbol>

  <symbol id="not-otk" viewBox="0 0 510 510">
    <g stroke="null">
      <path
        d="m436.41 73.295c-99.472-99.081-261.34-99.081-360.81 0-99.481 99.091-99.481 260.31 0 359.4 49.731 49.536 115.07 74.323 180.41 74.323s130.67-24.778 180.41-74.323c99.472-99.091 99.472-260.32 0-359.4zm-346.94 13.821c45.914-45.734 106.22-68.605 166.53-68.605 57.228 0 114.31 20.858 159.24 62.037l-332.36 331.05c-84.909-91.907-82.888-235.36 6.5843-324.49zm333.06 331.75c-89.482 89.131-233.49 91.145-325.77 6.5585l332.36-331.04c84.919 91.907 82.898 235.36-6.5843 324.49z"
        stroke="null"/>
    </g>
    <g stroke="null">
      <path
        d="m437.18 345.85l-8.9414-3.9458c-0.34804-1.2521-0.72684-2.4533-1.1315-3.6237l4.9827-8.5869c1.1445-1.9798 1.1639-4.4145 0.050992-6.4121-2.6208-4.6678-5.7467-9.0337-9.3211-13.02-1.5662-1.7621-3.9701-2.5269-6.2664-1.9919l-9.4093 2.1498c-0.92353-0.72118-1.8721-1.4205-2.8459-2.0996l-0.91058-9.9783c-0.20882-2.3027-1.6318-4.3182-3.7305-5.2862-4.7997-2.242-9.8375-3.9329-15.018-5.0401-2.3084-0.49212-4.701 0.31809-6.2348 2.1117l-6.5893 7.6513h-3.1615l-6.5893-7.6513c-1.5298-1.8001-3.9264-2.6119-6.2348-2.1117-5.1802 1.1073-10.219 2.7973-15.018 5.0401-2.0996 0.96804-3.5217 2.9843-3.7305 5.2862l-0.91058 9.9783c-0.97371 0.67666-1.9223 1.376-2.8459 2.0996l-9.4093-2.1498c-2.2963-0.53178-4.6986 0.2323-6.2664 1.9919-3.5751 3.9855-6.6986 8.3546-9.3146 13.026-1.1129 1.9952-1.0943 4.4282 0.050183 6.4056l4.9762 8.5813c-0.4047 1.1696-0.78188 2.3796-1.1315 3.6294l-8.9414 3.9458c-2.3489 1.0336-3.8649 3.3582-3.8633 5.9248v14.657c-0.001619 2.5666 1.5144 4.8912 3.8633 5.9248l8.9414 3.9458c0.34804 1.2521 0.72684 2.4533 1.1315 3.6237l-4.9827 8.5877c-1.1445 1.979-1.1639 4.4145-0.050992 6.4121 2.6208 4.6678 5.7467 9.0337 9.3211 13.02 1.5678 1.7629 3.975 2.5278 6.2729 1.9919l9.3963-2.1562c0.92353 0.72684 1.8778 1.4294 2.8515 2.1061l0.91058 9.9783c0.20882 2.3027 1.6318 4.3182 3.7305 5.2862 4.7997 2.242 9.8375 3.9329 15.018 5.0401 2.3084 0.4905 4.7002-0.31971 6.2348-2.1117l6.5893-7.6513h3.1615l6.5893 7.6513c1.2295 1.4302 3.0215 2.2526 4.9074 2.2509 0.44598 8.09e-4 0.89115-0.046136 1.3282-0.13922 5.181-1.1073 10.219-2.7973 15.018-5.0401 2.0996-0.96804 3.5217-2.9843 3.7305-5.2862l0.91058-9.9783c0.97371-0.67666 1.9223-1.3768 2.8459-2.0996l9.4093 2.1498c2.2963 0.53582 4.701-0.22906 6.2664-1.9919 3.5735-3.9855 6.6994-8.3522 9.3211-13.02 1.1129-1.9976 1.0935-4.4323-0.050992-6.4121l-4.9827-8.5869c0.4047-1.1696 0.78431-2.3715 1.1315-3.6237l8.9414-3.9458c2.3489-1.0336 3.8649-3.3582 3.8633-5.9248v-14.658c0.002428-2.5658-1.5136-4.8912-3.8625-5.9248zm-17.061 19.881c-1.8762 0.82478-3.2489 2.4905-3.699 4.4897-0.59167 2.667-1.4084 5.2797-2.4412 7.8091-0.77217 1.8665-0.63214 3.9863 0.37961 5.7354l4.6095 7.9426c-1.0433 1.6188-2.1692 3.1955-3.3768 4.7301l-8.676-1.9855c-2.0308-0.47431-4.1652 0.06799-5.7225 1.4545-2.017 1.7693-4.1781 3.3663-6.4623 4.7738-1.7321 1.07-2.8612 2.892-3.0482 4.9195l-0.84097 9.245c-1.7386 0.68313-3.4845 1.2772-5.2231 1.771l-5.9313-6.8864c-1.2303-1.4286-3.0215-2.2501-4.9066-2.2509h-9.0928c-1.8851 8.09e-4 -3.6763 0.82316-4.9066 2.2509l-5.9313 6.8864c-1.7386-0.49292-3.4845-1.0878-5.2231-1.771l-0.84097-9.245c-0.18697-2.0275-1.3153-3.8495-3.0482-4.9195-2.2833-1.4059-4.4428-3.0037-6.4566-4.7738-1.5654-1.3825-3.6998-1.9264-5.7354-1.461l-8.6695 1.9855c-1.2076-1.5241-2.3335-3.1049-3.3768-4.7237l4.6095-7.9426c1.0109-1.7491 1.1518-3.8681 0.37961-5.7354-1.0328-2.5294-1.8495-5.1421-2.4412-7.8091-0.45084-1.9992-1.8236-3.665-3.699-4.4897l-7.9742-3.516v-6.2227l7.9742-3.516c1.8762-0.82478 3.2489-2.4905 3.699-4.4897 0.59248-2.671 1.4092-5.2878 2.4412-7.822 0.77217-1.8649 0.63214-3.9822-0.37961-5.7289l-4.6039-7.9426c1.0368-1.6123 2.1627-3.1931 3.3703-4.7237l8.676 1.9855c2.0308 0.46702 4.1619-0.074465 5.7225-1.4545 2.017-1.7693 4.1781-3.3663 6.4623-4.7738 1.7321-1.07 2.8612-2.892 3.0482-4.9195l0.84097-9.245c1.7386-0.68313 3.4845-1.2772 5.2231-1.771l5.9313 6.8864c1.2303 1.4286 3.0215 2.2501 4.9074 2.2509h9.0928c1.8851-8.09e-4 3.6763-0.82316 4.9074-2.2509l5.9313-6.8864c1.7386 0.49292 3.4845 1.0878 5.2231 1.771l0.84097 9.245c0.18697 2.0275 1.3161 3.8495 3.0482 4.9195 2.2841 1.4075 4.4452 3.0045 6.4623 4.7738 1.5605 1.3808 3.6925 1.9223 5.7225 1.4545l8.676-1.9855c1.2076 1.5306 2.3335 3.1065 3.3768 4.7301l-4.6095 7.9426c-1.0109 1.7491-1.1518 3.8681-0.37961 5.7354 1.0328 2.5294 1.8495 5.1421 2.4412 7.8091 0.45084 1.9992 1.8236 3.665 3.699 4.4897l7.9742 3.516v6.2227l-7.9742 3.516z"/>
      <path
        d="m370.24 326.72c-17.88 0-32.376 14.496-32.376 32.376s14.496 32.376 32.376 32.376 32.376-14.496 32.376-32.376c-0.021044-17.872-14.504-32.355-32.376-32.376zm0 51.802c-10.729 0-19.426-8.697-19.426-19.426s8.697-19.426 19.426-19.426 19.426 8.697 19.426 19.426c-0.012141 10.724-8.7019 19.414-19.426 19.426z"/>
      <path
        d="m234.26 67.717c-53.642 0-97.128 43.486-97.128 97.128 0.058277 53.618 43.51 97.071 97.128 97.128 53.642 0 97.128-43.486 97.128-97.128s-43.486-97.128-97.128-97.128zm-80.679 121.13c-13.262-44.549 12.101-91.414 56.649-104.68 7.7986-2.3214 15.893-3.4998 24.029-3.4982 8.1272 0.007285 16.21 1.1971 23.995 3.5306-1.5816 1.0425-3.2263 2.051-4.6889 3.1534-2.2153 1.6682-3.1227 4.5618-2.2574 7.1964l2.9721 9.0491c-1.2206 1.151-2.4152 2.3456-3.5662 3.5662l-9.0426-2.9721c-2.6314-0.85068-5.5128 0.051802-7.1899 2.2509-4.7844 6.2834-8.7836 13.127-11.907 20.381-1.0878 2.5512-0.42898 5.5112 1.6374 7.3607l7.202 6.4501c-0.49292 1.6123-0.92919 3.2376-1.3153 4.8629l-9.3842 1.9733c-2.9956 0.63133-5.1405 3.274-5.1413 6.336v22.081c8.09e-4 3.062 2.1449 5.7047 5.1413 6.336l9.3842 1.9733c0.38608 1.6253 0.82235 3.2506 1.3088 4.8629l-7.1964 6.4501c-2.0664 1.8495-2.7253 4.8095-1.6374 7.3607 3.1235 7.249 7.1179 14.09 11.894 20.374 1.6682 2.2153 4.5618 3.1235 7.1964 2.2574l9.0491-2.9721c1.151 1.2206 2.3456 2.4152 3.5662 3.5662l-2.9721 9.0426c-0.86282 2.6314 0.041279 5.5201 2.2509 7.1899 1.4634 1.1056 3.113 2.119 4.6986 3.1648-44.549 13.261-91.414-12.101-104.67-56.651l-0.004047 0.003238zm119.69 50.524c-2.8046-1.431-5.5314-3.0102-8.1693-4.7293l2.8013-8.5238c0.82235-2.5067 0.044517-5.2619-1.9668-6.9681-2.9875-2.5269-5.7605-5.2975-8.2899-8.2834-1.7086-2.0041-4.4582-2.7779-6.9625-1.9604l-8.5497 2.8143c-2.1231-3.1194-4.0349-6.3765-5.7225-9.7508l6.7917-6.0891c1.966-1.7596 2.6686-4.5359 1.7766-7.0191-1.3274-3.6666-2.3448-7.4384-3.0417-11.275-0.46864-2.5925-2.4614-4.6435-5.0401-5.185l-8.3789-1.7645v-11.572l8.3789-1.7645c2.5787-0.5423 4.5715-2.5925 5.0401-5.185 0.69932-3.8406 1.7167-7.6156 3.0417-11.288 0.89196-2.4816 0.18859-5.2554-1.7766-7.0126l-6.7917-6.0826c1.6892-3.3736 3.601-6.6314 5.7225-9.7508l8.5554 2.8143c2.5067 0.81588 5.2579 0.039661 6.9681-1.9668 2.5269-2.9875 5.2975-5.7605 8.2834-8.2899 2.0065-1.7078 2.7811-4.459 1.9604-6.9625l-2.8013-8.5238c2.6386-1.7159 5.3647-3.2926 8.1677-4.7237 8.8532 4.6743 16.806 10.882 23.489 18.337-31.03 8.3417-49.423 40.259-41.081 71.289 5.3874 20.04 21.041 35.694 41.081 41.081-6.6808 7.453-14.633 13.661-23.486 18.335zm-6.1773-80.964c2.858-19.862 18.462-35.465 38.323-38.323 17.356 27.319 17.356 62.209 0 89.528-24.723-3.5565-41.881-26.482-38.323-51.204z"/>
      <path
        d="m404.85 152.32l-7.7654-3.427c-0.26548-0.92919-0.54392-1.8398-0.84744-2.7317l4.3319-7.4683c1.1445-1.9774 1.1639-4.4104 0.050992-6.4056-2.3788-4.2413-5.2158-8.2089-8.4607-11.831-1.5694-1.7661-3.9782-2.5326-6.2793-1.9984l-8.1571 1.8657c-0.68961-0.53097-1.3914-1.0498-2.1061-1.5492l-0.79645-8.6824c-0.2153-2.2971-1.6326-4.3068-3.7249-5.2797-4.3619-2.0421-8.9423-3.5808-13.652-4.5844-2.2323-0.47026-4.5472 0.27277-6.0891 1.9539l-7.147 7.7662c-30.164-60.798-103.9-85.635-164.7-55.468s-85.635 103.9-55.469 164.7c1.8025 3.6334 3.7839 7.1753 5.937 10.613l-17.322 21.651c-1.1008 1.3833-1.5921 3.1542-1.3598 4.9066 0.23149 1.7556 1.1761 3.338 2.6119 4.3756l14.063 10.227-73.56 90.531c-2.2558 2.7835-1.8276 6.8686 0.9559 9.1244 0.008094 0.006475 0.016188 0.01295 0.023473 0.019426l32.376 25.901c2.7803 2.2186 6.8281 1.7839 9.0742-0.97371l75.2-92.547 13.094 9.5234c2.7981 2.0356 6.7026 1.512 8.8654-1.189l20.204-25.257c53.288 9.2361 106.27-17.822 130.03-66.406l7.0831 7.7945c1.2279 1.3501 2.9681 2.119 4.7933 2.1182 0.44598 8.09e-4 0.89115-0.046136 1.3282-0.13922 4.7123-1.0037 9.2952-2.5423 13.659-4.5844 2.0915-0.9729 3.5096-2.9834 3.7249-5.2797l0.79645-8.6824c0.7147-0.50588 1.4164-1.0247 2.0996-1.5492l8.1636 1.8657c2.3011 0.53825 4.7123-0.22906 6.2793-1.9984 3.2416-3.6213 6.0762-7.5865 8.4542-11.825 1.1178-1.9952 1.1016-4.4323-0.044517-6.4121l-4.3319-7.4683c0.30352-0.89196 0.58196-1.8025 0.84744-2.7317l7.7654-3.427c2.3489-1.0336 3.8649-3.3582 3.8633-5.9248v-13.191c0.001619-2.5658-1.5136-4.8904-3.8633-5.924l0.005666-0.006475zm-314.01 230.08l-22.265-17.813 69.887-86.007 23.087 16.795-70.708 87.027v-0.001619zm96.909-83.983l-13.058-9.4975-0.73655-0.53582-46.948-34.148 10.718-13.389c15.902 20.196 37.72 34.914 62.402 42.095l-12.377 15.475zm46.522-23.504c-60.795 0-110.08-49.284-110.08-110.08 0.06799-60.767 49.312-110.01 110.08-110.08 60.795 0 110.08 49.284 110.08 110.08s-49.284 110.08-110.08 110.08zm161.5-107.7l-6.7852 2.9907c-1.8762 0.82478-3.2489 2.4905-3.699 4.4897-0.52692 2.3707-1.2505 4.6929-2.1627 6.943-0.77217 1.8624-0.63133 3.9782 0.37961 5.7225l3.9458 6.8038c-0.79078 1.2076-1.6358 2.3902-2.5359 3.5476l-7.3987-1.6949c-2.0316-0.47674-4.1684 0.063133-5.7289 1.448-1.792 1.5743-3.7127 2.9956-5.7419 4.2494-1.724 1.0708-2.8475 2.8863-3.0353 4.9074l-0.72684 7.9232c-1.3218 0.51235-2.6475 0.96157-3.9774 1.3468l-8.4542-9.3065c9.9459-26.985 9.9313-56.633-0.04047-83.611l8.476-9.2037c1.3282 0.38608 2.6686 0.84097 3.9968 1.3533l0.72684 7.9232c0.18859 2.0235 1.3145 3.8422 3.0417 4.9131 2.0284 1.2497 3.9474 2.6686 5.7354 4.2429 1.5621 1.3816 3.6973 1.9215 5.7289 1.448l7.3987-1.6949c0.89762 1.1574 1.7434 2.34 2.5359 3.5476l-3.9458 6.8038c-1.0109 1.7443-1.151 3.86-0.37961 5.7225 0.91219 2.2501 1.6358 4.5731 2.1627 6.943 0.45084 1.9992 1.8236 3.665 3.699 4.4897l6.7852 2.9907v4.7568l-8.09e-4 0.004047z"/>
    </g>
  </symbol>

  <symbol id="radiation" viewBox="0 0 461.806 461.806">
    <path
      d="m230.9 257.27c26.191 0 47.5-21.309 47.5-47.5s-21.309-47.5-47.5-47.5-47.5 21.309-47.5 47.5 21.309 47.5 47.5 47.5zm0-80c17.921 0 32.5 14.579 32.5 32.5s-14.579 32.5-32.5 32.5-32.5-14.579-32.5-32.5 14.579-32.5 32.5-32.5z"/>
    <path
      d="m167.39 198.49c2.41-13.633 9.37-26.378 19.597-35.889 8.165-7.592 9.63-20.041 3.484-29.602l-65.337-101.64c-3.544-5.513-9.284-9.331-15.747-10.476-6.411-1.136-13.057 0.459-18.224 4.378-52.928 40.137-86.132 100.97-91.097 166.89-0.482 6.407 1.764 12.802 6.163 17.546 4.459 4.808 10.772 7.564 17.321 7.564h120.83c11.41 1e-3 21.087-7.897 23.01-18.777zm-150.16 1.012c-1.594-1.718-2.376-3.927-2.204-6.218 4.643-61.641 35.698-118.52 85.204-156.07 1.467-1.112 3.211-1.693 5.024-1.693 0.503 0 1.011 0.044 1.519 0.135 2.396 0.424 4.437 1.779 5.746 3.816l65.337 101.64c2.179 3.39 1.714 7.906-1.082 10.506-12.601 11.718-21.178 27.437-24.153 44.262-0.644 3.643-4.185 6.389-8.237 6.389h-120.83c-2.389-1e-3 -4.694-1.009-6.323-2.767z"/>
    <path
      d="m461.74 192.16c-4.965-65.924-38.169-126.75-91.097-166.89-5.167-3.918-11.807-5.514-18.224-4.378-6.463 1.145-12.203 4.963-15.747 10.476l-65.337 101.64c-6.146 9.561-4.681 22.01 3.484 29.602 10.227 9.511 17.187 22.256 19.597 35.889 1.923 10.88 11.6 18.777 23.009 18.777h120.83c6.549 0 12.862-2.757 17.321-7.564 4.4-4.745 6.647-11.139 6.164-17.547zm-17.161 7.345c-1.63 1.758-3.935 2.766-6.323 2.766h-120.83c-4.053 0-7.594-2.746-8.237-6.389-2.976-16.825-11.553-32.544-24.153-44.262-2.796-2.6-3.261-7.116-1.082-10.506l65.336-101.64c1.31-2.037 3.351-3.393 5.746-3.816 2.344-0.417 4.67 0.139 6.543 1.559 49.506 37.542 80.562 94.426 85.204 156.07 0.172 2.29-0.61 4.499-2.204 6.217z"/>
    <path
      d="m283.97 278.45c-6.145-9.56-18.119-13.375-28.468-9.074-7.819 3.252-16.095 4.9-24.596 4.9s-16.776-1.648-24.597-4.901c-10.346-4.299-22.32-0.486-28.467 9.075l-65.35 101.66c-3.541 5.508-4.637 12.309-3.005 18.658 1.614 6.279 5.792 11.642 11.46 14.711 33.594 18.188 71.616 27.801 109.96 27.801s76.364-9.613 109.96-27.801c5.669-3.069 9.847-8.432 11.461-14.711 1.632-6.35 0.536-13.15-3.005-18.658l-65.348-101.66zm53.826 116.58c-0.587 2.284-2.033 4.149-4.074 5.254-31.406 17.004-66.96 25.992-102.82 25.992s-71.409-8.988-102.82-25.992c-2.04-1.104-3.486-2.97-4.073-5.254-0.605-2.354-0.217-4.773 1.094-6.813l65.35-101.66c1.616-2.513 4.313-3.939 7.064-3.939 1.019 0 2.045 0.195 3.026 0.604 9.654 4.015 19.867 6.051 30.355 6.051s20.701-2.036 30.354-6.05c3.635-1.509 7.878-0.108 10.092 3.335l65.35 101.66c1.31 2.038 1.698 4.457 1.093 6.812z"/>
    <path
      d="m107.95 63.823c-2.239-3.485-6.882-4.494-10.364-2.253-3.484 2.239-4.493 6.88-2.253 10.364l14.067 21.883c1.433 2.229 3.849 3.445 6.315 3.445 1.389 0 2.794-0.386 4.049-1.192 3.484-2.239 4.493-6.88 2.253-10.364l-14.067-21.883z"/>
    <path
      d="m150.51 151.39c1.389 0 2.794-0.386 4.049-1.192 3.484-2.239 4.493-6.88 2.253-10.364l-15.591-24.253c-2.239-3.485-6.881-4.494-10.364-2.253-3.484 2.239-4.493 6.88-2.253 10.364l15.591 24.253c1.432 2.229 3.848 3.445 6.315 3.445z"/>
    <path
      d="m398.56 101.7c-2.247-3.479-6.889-4.475-10.369-2.231-3.479 2.248-4.479 6.891-2.231 10.37 13.669 21.163 22.716 44.438 26.891 69.178 0.618 3.662 3.793 6.253 7.387 6.253 0.414 0 0.834-0.034 1.257-0.105 4.084-0.689 6.837-4.56 6.147-8.644-4.517-26.761-14.301-51.934-29.082-74.821z"/>
    <path
      d="m365.21 62.334c-3.061-2.788-7.804-2.571-10.596 0.492-2.789 3.062-2.569 7.806 0.492 10.596 4.624 4.213 9.078 8.706 13.239 13.354 1.481 1.654 3.531 2.497 5.591 2.497 1.78 0 3.568-0.631 5-1.912 3.086-2.764 3.348-7.505 0.585-10.591-4.499-5.025-9.313-9.881-14.311-14.436z"/>
    <path
      d="m263.8 306.26c-2.24-3.485-6.881-4.493-10.364-2.253-3.484 2.239-4.493 6.88-2.253 10.364l12.52 19.475c1.433 2.229 3.849 3.445 6.315 3.445 1.389 0 2.794-0.386 4.049-1.192 3.484-2.239 4.493-6.88 2.253-10.364l-12.52-19.475z"/>
    <path
      d="m293.21 352c-2.239-3.485-6.882-4.493-10.364-2.253-3.484 2.239-4.493 6.88-2.253 10.364l19.457 30.267c1.433 2.229 3.849 3.445 6.315 3.445 1.389 0 2.794-0.386 4.049-1.192 3.484-2.239 4.493-6.88 2.253-10.364l-19.457-30.267z"/>
  </symbol>

  <symbol id="old" viewBox="0 0 512.001 512.001">
    <path
      d="m255.03 260.47l-49.108-14.892-5.342-10.684c-1.665-3.331-5.472-4.872-8.916-3.805v-1.859c20.336-14.691 34.137-37.895 36.094-64.352 9.53-2.663 17.029-10.412 18.599-20.072 0.991-6.093-0.303-12.092-3.265-17.078 9.48-4.963 15.968-14.893 15.968-26.314 0-10.358-5.489-19.796-14.024-25.113 0.471-1.936 0.712-3.931 0.712-5.949 0-13.923-11.327-25.25-25.25-25.25-3.34 0-6.528 0.658-9.448 1.841-14.453-13.13-32.959-20.32-52.677-20.32h-35.5c-19.631 0-38.214 7.202-52.679 20.319-2.92-1.183-6.107-1.84-9.446-1.84-13.923 0-25.25 11.327-25.25 25.25 0 2.019 0.241 4.014 0.712 5.949-8.536 5.317-14.024 14.755-14.024 25.113 0 11.415 6.48 21.339 15.95 26.305-2.955 4.969-4.242 10.966-3.247 17.087 1.57 9.66 9.069 17.409 18.599 20.072 1.953 26.421 15.72 49.596 36.01 64.29v1.893c-3.422-1.016-7.181 0.529-8.833 3.832l-5.338 10.675-51.01 15.303c-14.547 4.365-24.32 17.501-24.32 32.688v184.32c0 4.142 3.358 7.5 7.5 7.5s7.5-3.358 7.5-7.5v-184.32c0-0.55 0.025-1.094 0.07-1.634l29.979 29.979c5.289 5.289 8.201 12.32 8.201 19.799v136.17c0 4.142 3.358 7.5 7.5 7.5s7.5-3.358 7.5-7.5v-136.17c0-11.486-4.473-22.284-12.595-30.406l-33.028-33.028c1.768-1.32 3.781-2.363 6.003-3.029l33.791-10.137c2.646 7.437 22.296 58.513 74.044 93.011 1.26 0.84 2.71 1.26 4.16 1.26s2.9-0.42 4.16-1.26c53.481-35.654 72.559-88.359 74.129-92.922l31.767 9.633c0.726 0.22 1.458 0.325 2.179 0.325 3.217 0 6.192-2.087 7.174-5.326 1.202-3.964-1.037-8.151-5.001-9.354zm-61.137-5.408l-25.345 31.682c-0.348 0.435-0.766 0.524-1.096 0.516-0.307-5e-3 -0.744-0.104-1.078-0.55l-14.359-19.146 38.503-19.252 3.375 6.75zm-53.271 1.427l-36.125-18.062v-0.503c11.016 5.022 23.249 7.825 36.125 7.825 12.844 0 25.047-2.791 36.042-7.79v0.509l-36.042 18.021zm79.875-196.39c5.652 0 10.25 4.598 10.25 10.25 0 2.002-0.59 3.951-1.705 5.636-1.325 2.001-1.612 4.515-0.772 6.763s2.704 3.958 5.015 4.602c6.344 1.766 10.775 7.548 10.775 14.061 0 8.099-6.589 14.688-14.688 14.688s-14.688-6.589-14.688-14.688c0-3.629 1.395-7.144 3.928-9.896 1.624-1.764 2.306-4.198 1.836-6.549s-2.036-4.336-4.212-5.34c-3.638-1.679-5.989-5.32-5.989-9.277 0-5.652 4.598-10.25 10.25-10.25zm-183.31 41.312c1e-3 -6.512 4.431-12.294 10.775-14.06 2.312-0.644 4.176-2.354 5.015-4.602s0.552-4.762-0.772-6.763c-1.115-1.685-1.705-3.634-1.705-5.636 0-5.652 4.598-10.25 10.25-10.25s10.25 4.597 10.25 10.249c0 3.957-2.351 7.599-5.989 9.277-2.177 1.004-3.743 2.989-4.212 5.34-0.47 2.351 0.212 4.785 1.836 6.549 2.533 2.752 3.928 6.267 3.928 9.896 0 8.099-6.589 14.688-14.688 14.688s-14.688-6.589-14.688-14.688zm31.063 56.959c0-4.142-3.358-7.5-7.5-7.5-5.516 0-10.269-3.643-11.054-8.474-0.895-5.504 2.473-10.567 7.833-11.775 0.29-0.065 0.569-0.151 0.843-0.247 13.254-2.972 23.19-14.825 23.19-28.962 0-4.587-1.076-9.066-3.104-13.125 4.732-4.669 7.542-11.109 7.542-17.938 0-5.063-1.504-9.78-4.08-13.737 11.447-9.69 25.814-14.992 40.955-14.992h35.5c15.208 0 29.532 5.276 40.967 14.974-2.584 3.961-4.092 8.684-4.092 13.755 0 6.829 2.81 13.269 7.542 17.938-2.029 4.059-3.104 8.538-3.104 13.125 0 14.422 10.34 26.47 23.995 29.134 0.23 0.094 0.466 0.179 0.709 0.251 4.289 1.281 8.126 5.676 7.163 11.6-0.785 4.831-5.538 8.474-11.054 8.474-4.142 0-7.5 3.358-7.5 7.5 0 39.908-32.467 72.375-72.375 72.375s-72.376-32.468-72.376-72.376zm20.103 94.689l2.376-4.751 38.504 19.252-14.359 19.146c-0.334 0.446-0.771 0.545-1.078 0.55-0.328 0.026-0.748-0.081-1.096-0.516l-25.145-31.431c0.383-0.7 0.652-1.459 0.798-2.25zm52.272 89.707c-33.576-23.863-51.647-55.094-59.327-71.267l19.689 24.611c3.133 3.916 7.778 6.146 12.779 6.146 0.088 0 0.176-1e-3 0.264-2e-3 5.101-0.08 9.782-2.467 12.843-6.548l6.251-8.335v30.75c0 4.142 3.358 7.5 7.5 7.5s7.5-3.358 7.5-7.5v-30.75l6.251 8.335c3.061 4.082 7.742 6.468 12.843 6.548 0.088 1e-3 0.176 2e-3 0.264 2e-3 5.001 0 9.646-2.23 12.779-6.146l19.749-24.687c-7.618 16.129-25.635 47.369-59.385 71.343z"/>
    <path
      d="m163.1 179.18c-3.217-2.61-7.94-2.117-10.549 1.1-3.19 3.934-7.425 6.1-11.925 6.1s-8.735-2.166-11.925-6.1c-2.608-3.217-7.332-3.709-10.549-1.1s-3.709 7.332-1.1 10.549c6.005 7.404 14.598 11.65 23.575 11.65s17.567-4.247 23.573-11.65c2.609-3.217 2.117-7.94-1.1-10.549z"/>
    <path
      d="m105.12 133.12c-4.142 0-7.5 3.358-7.5 7.5v8.875c0 4.142 3.358 7.5 7.5 7.5s7.5-3.358 7.5-7.5v-8.875c0-4.142-3.358-7.5-7.5-7.5z"/>
    <path
      d="m176.12 133.12c-4.142 0-7.5 3.358-7.5 7.5v8.875c0 4.142 3.358 7.5 7.5 7.5s7.5-3.358 7.5-7.5v-8.875c0-4.142-3.358-7.5-7.5-7.5z"/>
    <path
      d="m252.43 295.07c-2.929-2.929-7.678-2.929-10.606 0l-16.227 16.227c-8.122 8.122-12.595 18.92-12.595 30.406v136.17c0 4.142 3.358 7.5 7.5 7.5s7.5-3.358 7.5-7.5v-136.17c0-7.479 2.913-14.511 8.201-19.799l16.227-16.227c2.929-2.929 2.929-7.678 0-10.607z"/>
    <path
      d="m402.72 241.3c-3.217-2.61-7.941-2.117-10.549 1.1-3.19 3.934-7.425 6.1-11.925 6.1s-8.735-2.166-11.925-6.1c-2.608-3.217-7.332-3.709-10.549-1.1s-3.709 7.332-1.1 10.549c6.004 7.403 14.596 11.65 23.573 11.65s17.569-4.247 23.575-11.65c2.609-3.217 2.117-7.94-1.1-10.549z"/>
    <path
      d="m300.38 372.75c-4.142 0-7.5 3.358-7.5 7.5v97.625c0 4.142 3.358 7.5 7.5 7.5s7.5-3.358 7.5-7.5v-97.625c0-4.142-3.358-7.5-7.5-7.5z"/>
    <path
      d="m460.12 372.75c-4.142 0-7.5 3.358-7.5 7.5v97.625c0 4.142 3.358 7.5 7.5 7.5s7.5-3.358 7.5-7.5v-97.625c0-4.142-3.358-7.5-7.5-7.5z"/>
    <path
      d="m486.93 321.5c4.685-5.942 7.322-13.349 7.322-21.122 0-12.639-6.932-23.95-17.779-29.834 0.02-0.41 0.029-0.819 0.029-1.228 0-9.749-4.72-18.673-12.425-24.165 0.51-1.73 0.984-3.472 1.384-5.236 0.972-4.283 1.592-8.809 1.883-13.769 11.805-17.418 18.033-37.738 18.033-58.893 0-57.966-47.159-105.12-105.12-105.12s-105.12 47.159-105.12 105.12c0 21.157 6.229 41.477 18.034 58.894 0.291 4.963 0.911 9.488 1.882 13.767 0.4 1.763 0.874 3.505 1.384 5.236-7.705 5.492-12.425 14.416-12.425 24.166 0 0.409 0.01 0.818 0.029 1.228-10.848 5.884-17.779 17.196-17.779 29.834 0 7.773 2.638 15.18 7.322 21.122-15.456 9.274-25.072 25.933-25.072 44.421v111.96c0 4.142 3.358 7.5 7.5 7.5s7.5-3.358 7.5-7.5v-111.96c0-15.166 9.099-28.605 23.18-34.238l1.435-0.574c22.183 29.98 56.357 47.769 92.136 47.769 36.268 0 69.693-17.379 92.129-47.771l1.441 0.576c14.082 5.633 23.18 19.072 23.18 34.238v111.96c0 4.142 3.358 7.5 7.5 7.5s7.5-3.358 7.5-7.5v-111.96c-1e-3 -18.488-9.617-35.147-25.073-44.421zm-196.8-154.25c0-49.695 40.43-90.125 90.125-90.125s90.125 40.43 90.125 90.125c0 12.641-2.597 24.93-7.593 36.272-10.806-23.253-34.824-29.769-58.189-36.091-18.889-5.111-38.421-10.397-55.159-23.787-1.769-1.415-4.084-1.956-6.294-1.469-2.212 0.486-4.086 1.945-5.099 3.971-0.078 0.155-7.935 15.603-23.271 23.271-3.705 1.852-5.207 6.357-3.354 10.062 1.852 3.705 6.356 5.208 10.062 3.354 12.207-6.104 20.618-15.796 25.36-22.506 17.47 11.742 36.666 16.937 53.837 21.583 5.636 1.525 10.823 2.971 15.564 4.478-0.164-3e-3 -0.326-0.012-0.49-0.012-9.14 0-17.161 4.881-21.593 12.174-4.146-2.134-8.905-3.299-13.906-3.299-5.002 0-9.762 1.165-13.907 3.299-4.433-7.292-12.454-12.174-21.593-12.174-13.923 0-25.25 11.327-25.25 25.25s11.327 25.25 25.25 25.25c12.976 0 23.693-9.84 25.091-22.45 2.447-2.604 6.273-4.175 10.409-4.175 4.135 0 7.961 1.571 10.408 4.175 1.398 12.61 12.115 22.45 25.091 22.45 13.923 0 25.25-11.327 25.25-25.25 0-7.294-3.112-13.872-8.074-18.485 10.726 5.845 17.323 14.005 19.768 28.417-0.126 0.503-0.206 1.025-0.226 1.564-0.179 5.001-0.715 9.407-1.637 13.471-3.57 15.733-12.492 30.019-25.121 40.228-12.995 10.504-28.714 16.056-45.46 16.056s-32.466-5.552-45.46-16.056c-12.629-10.208-21.55-24.495-25.121-40.228-0.92-4.056-1.456-8.458-1.636-13.458-0.072-1.986-0.911-3.769-2.227-5.067-10.263-15.001-15.68-32.543-15.68-50.818zm135.88 44.375c0 5.652-4.598 10.25-10.25 10.25s-10.25-4.598-10.25-10.25 4.598-10.25 10.25-10.25 10.25 4.598 10.25 10.25zm-71 0c0 5.652-4.598 10.25-10.25 10.25s-10.25-4.598-10.25-10.25 4.598-10.25 10.25-10.25 10.25 4.598 10.25 10.25zm68.368 99.85c-11.661 10.825-26.915 16.899-43.119 16.899-16.187 0-31.449-6.079-43.114-16.901 4.684-2.05 8.563-5.415 11.225-9.65 10.102 3.957 20.928 6.052 31.89 6.052s21.788-2.095 31.89-6.052c2.663 4.237 6.544 7.602 11.228 9.652zm-135.33 3.506c-4.281-3.618-6.788-8.938-6.788-14.607-1e-3 -8.293 5.377-15.572 13.381-18.113 3.832-1.216 6.022-5.237 4.968-9.116-0.41-1.505-0.6-2.723-0.6-3.832 0-3.478 1.22-6.738 3.326-9.308 5.559 10.929 13.399 20.692 23.034 28.48 2.982 2.41 6.116 4.607 9.372 6.59-1.054 1.214-2.385 2.183-3.925 2.799l-42.768 17.107zm92.211 48.894c-30.23 0-58.166-13.965-77.672-38.554l19.46-7.783c14.887 16.476 35.845 25.837 58.213 25.837 22.389 0 43.325-9.358 58.211-25.838l19.467 7.787c-19.515 24.581-47.498 38.551-77.679 38.551zm92.211-48.893l-42.769-17.108c-1.54-0.616-2.87-1.585-3.924-2.799 3.255-1.984 6.39-4.18 9.372-6.59 9.635-7.788 17.475-17.552 23.034-28.48 2.106 2.57 3.326 5.83 3.326 9.308 0 1.109-0.19 2.327-0.6 3.832-1.055 3.879 1.136 7.9 4.968 9.116 8.004 2.541 13.382 9.82 13.382 18.114 0 5.669-2.508 10.989-6.789 14.607z"/>
  </symbol>

  <symbol id="veteran" viewBox="0 0 496 496">
    <path
      d="m383.38 310.36l-71.384-20.392v-29.76c9.64-10.24 16.84-22.76 20.712-36.688 15-1.792 27.424-11.768 32.6-25.448l10.824-7.216c9.936-6.624 15.864-17.704 15.864-29.648 0-7.664-2.528-15.256-7.128-21.376l-2.552-3.4c-9.728-12.968-16.664-28.208-20.064-44.064-11.464-53.52-59.52-92.368-114.26-92.368s-102.79 38.848-114.26 92.368c-3.392 15.856-10.336 31.096-20.064 44.064l-2.544 3.392c-4.6 6.128-7.128 13.72-7.128 21.384 0 11.944 5.928 23.024 15.864 29.648l10.824 7.216c5.184 13.68 17.6 23.664 32.6 25.448 3.872 13.928 11.072 26.448 20.712 36.688v29.76l-71.384 20.392c-23.912 6.824-40.616 28.968-40.616 53.84v131.8h352v-131.8c0-24.872-16.704-47.016-40.616-53.84zm-2.728 16.016c9.296 3.12 16.896 9.48 21.704 17.624h-12.248l-10.536 5.264-3.096-6.192 4.176-16.696zm-40.928-11.848l-23.568 29.472h-28.16v36.248l-30.728 25.608c2.568-18.192 9-35.664 18.952-51.312l31.32-49.216 32.184 9.2zm-19.728-178.53h-144v-7.568c19.864-4.776 44.144-8.432 72-8.432s52.136 3.656 72 8.432v7.568zm15.664 70.632c0.168-2.2 0.336-4.392 0.336-6.632v-38.528c9.288 3.312 16 12.112 16 22.528 0 10.536-6.872 19.416-16.336 22.632zm33.32-61.408c0.192 0.256 0.344 0.544 0.536 0.8l2.552 3.408c2.536 3.376 3.928 7.56 3.928 11.776 0 6.544-3.24 12.616-8.656 16.264-2.704-16.328-15.216-29.376-31.344-32.664v-12.04c14.448 4.368 25.624 9.016 32.984 12.456zm-63.72-111.18c9.608 6.656 18.016 14.968 24.848 24.528l-10.112 10.112v11.312h-19.056l-7.272-14.544-21.672-7.224v-10.232h19.312l13.952-13.952zm-123.48 7.048l14.904 14.904h19.312v16h-24v16h-16v-24h-13.8c5.352-8.624 12.008-16.296 19.584-22.904zm-53.128 136.38c-5.416-3.648-8.656-9.72-8.656-16.264 0-4.224 1.392-8.4 3.928-11.784l2.544-3.392c0.192-0.256 0.344-0.544 0.536-0.808 7.368-3.44 18.544-8.088 32.992-12.456v12.04c-16.128 3.288-28.632 16.344-31.344 32.664zm15.344 6.528c0-10.416 6.712-19.216 16-22.528v38.528c0 2.24 0.168 4.432 0.336 6.632-9.464-3.216-16.336-12.096-16.336-22.632zm-3.512-61.592c3.92-8.552 6.936-17.528 8.904-26.688 1.16-5.432 2.792-10.672 4.792-15.72h5.816v24h48v-16h24v-48h-28.688l-8.544-8.544c15.624-9.784 33.92-15.456 53.232-15.456 15.2 0 29.784 3.512 42.928 9.76l-6.24 6.24h-28.688v37.768l26.328 8.776 8.728 17.456h44.944v-20.688l2.584-2.584c3.536 7.208 6.296 14.888 8.032 22.992 1.968 9.16 4.976 18.136 8.904 26.688-24.16-8.76-61.24-18.408-107.52-18.408s-83.36 9.648-107.51 18.408zm35.512 77.592v-48h144v48c0 39.696-32.304 72-72 72s-72-32.304-72-72zm101.67 82.744c-7.528 8.336-18.352 13.256-29.672 13.256-11.312 0-22.136-4.92-29.672-13.256 9.288 3.336 19.248 5.256 29.672 5.256s20.384-1.92 29.672-5.256zm-162.33 43.632l4.168 16.688-3.096 6.192-10.528-5.256h-12.248c4.808-8.144 12.408-14.504 21.704-17.624zm-27.344 105.62h8c4.408 0 8 3.584 8 8s-3.592 8-8 8h-8v-16zm152 9.08v38.92h-80v-8h32v-16h16v-48h-29.576l-18.424-12.28v-27.72h-16v112h-56v-16h8c13.232 0 24-10.768 24-24s-10.768-24-24-24h-8v-16h32v-16h-32v-19.8c0-1.424 0.2-2.808 0.352-4.2h13.76l21.464 10.736 12.904-25.808-5.776-23.096 8.888-2.536 32.568 40.704h19.84v27.752l48 40v13.328zm-80 14.92v-41.056l13.576 9.056h18.424v16h-16v16h-16zm81-48.256l-33-27.496v-36.248h-28.16l-23.576-29.472 32.144-9.184 54.896 87.832c-1.04 4.8-1.752 9.672-2.304 14.568zm-41-114.04v-8.376l3.2 4.264c10.52 14.032 27.272 22.408 44.8 22.408s34.28-8.376 44.8-22.4l3.2-4.272v8.336l-33.272 52.288c-5.4 8.48-9.84 17.456-13.352 26.752l-49.376-79zm136 186.3h-16v-24h-24v-16h12.688l8 8h19.312v32zm72-32h-8c-4.408 0-8-3.584-8-8s3.592-8 8-8h8v16zm0-64h-32v16h32v16h-8c-13.232 0-24 10.768-24 24s10.768 24 24 24h8v16h-56v-112h-16v64h-12.688l-8-8h-35.312v48h24v8h-48v-52.256l48-40v-27.744h19.84l32.568-40.704 8.888 2.536-5.776 23.096 12.904 25.808 21.464-10.736h13.76c0.152 1.392 0.352 2.776 0.352 4.2v19.8z"/>
    <circle cx="208" cy="176" r="8"/>
    <circle cx="288" cy="176" r="8"/>
    <path d="m264 216c0 8.824-7.176 16-16 16s-16-7.176-16-16h-16c0 17.648 14.352 32 32 32s32-14.352 32-32h-16z"/>
  </symbol>

  <symbol id="disabled" viewBox="0 0 496 496">
    <path
      d="m472 111.98h-96.936c-17.24 0-32.496 10.992-37.944 27.352l-6.824 20.472c-3.952-8.08-9.888-15.032-17.256-20.4 9.44-3.488 18.304-8.944 25.872-16.504 28.072-28.08 28.072-73.752 0-101.83-28.08-28.064-73.752-28.064-101.83 0-28.072 28.08-28.072 73.752 0 101.83 3.376 3.376 7.016 6.32 10.84 8.88l-1.392 0.328c-31.456 7.856-53.568 35.608-54.448 67.872h-52.08c-15.44 0-28 12.56-28 28 0 7.84 3.256 14.912 8.464 20h-8.832c-17.672 0-33.032 11.344-38.232 28.232l-23.592 76.68c-10.224 2.752-17.808 12.008-17.808 23.088 0 2.816 0.576 5.488 1.472 8h-9.472c-13.232 0-24 10.768-24 24s10.768 24 24 24h95.68c15.176 0 28.792-8.704 35.528-21.84 11.832 49.16 56.056 85.84 108.79 85.84 61.76 0 112-50.24 112-112 0-34.48-15.68-65.352-40.264-85.912l46.032-138.09h90.232c13.232 0 24-10.768 24-24s-10.768-24-24-24zm-152 72.504v6.208l-16.432 49.288h-41.52c2.48-2.416 4.808-5 6.832-7.888l37.904-54.136c3.408-4.864 5.216-10.592 5.216-16.544v-0.84c5.048 6.752 8 15.032 8 23.912zm-63.304-11.128l15.776-23.656c2.384-3.576 6.376-5.72 10.688-5.72 7.08 0 12.84 5.76 12.84 12.84v4.584c0 2.656-0.808 5.192-2.32 7.36l-17.12 24.456-19.864-19.864zm-8.296-140.98c10.92-10.912 25.256-16.368 39.6-16.368s28.688 5.456 39.6 16.368c21.832 21.832 21.832 57.368 0 79.2-21.84 21.832-57.376 21.832-79.2 0-21.832-21.832-21.832-57.368 0-79.2zm2.016 115.24l5.056-1.264-31 46.496c-2.976 4.464-7.96 7.128-13.312 7.128h-2.992c0.872-24.904 17.928-46.28 42.248-52.36zm-110.42 68.36h71.16c10.728 0 20.68-5.328 26.624-14.248l9.864-14.792 19.6 19.6-11.472 16.384c-7.472 10.68-19.72 17.056-32.768 17.056h-83.008c-6.616 0-12-5.384-12-12s5.384-12 12-12zm-51.304 64.936c3.12-10.128 12.336-16.936 22.936-16.936h28.104c-0.752 1.712-1.448 3.456-1.96 5.296l-22.96 82.704h-47.984l21.864-71.064zm-32.696 87.064h54.368l-2.816 10.136c-0.968 3.448-4.136 5.864-7.72 5.864h-43.832c-4.416 0-8-3.584-8-8s3.584-8 8-8zm86.8 30.424c-2.872 10.352-12.376 17.576-23.12 17.576h-95.68c-4.416 0-8-3.584-8-8s3.584-8 8-8h75.832c10.736 0 20.248-7.224 23.136-17.576l30.232-108.84c2.872-10.36 12.376-17.584 23.12-17.584h121.92l-5.336 16h-96.736c-10.736 0-20.248 7.224-23.136 17.576l-30.232 108.85zm63.808-110.42c-7.632 4.576-14.712 9.96-21.024 16.16l2.856-10.296c0.976-3.448 4.144-5.864 7.728-5.864h10.44zm153.39 96c0 52.936-43.064 96-96 96s-96-43.064-96-96 43.064-96 96-96 96 43.064 96 96zm80-240h-58.232c-6.904 0-13 4.4-15.176 10.936l-44.496 133.49c-4.856-2.96-9.888-5.64-15.192-7.848l45.384-136.16c3.28-9.824 12.432-16.416 22.776-16.416h64.936v16zm32 0h-16v-16h16c4.416 0 8 3.584 8 8s-3.584 8-8 8z"/>
    <path
      d="m264 303.98c-44.112 0-80 35.888-80 80s35.888 80 80 80 80-35.888 80-80-35.888-80-80-80zm8 16.552c11.664 1.464 22.336 6.072 31.184 12.952l-23.032 23.032c-2.528-1.488-5.248-2.64-8.152-3.4v-32.584zm-15.992 8e-3v32.576h-8e-3c-2.904 0.752-5.632 1.904-8.152 3.4l-23.024-23.024c8.848-6.88 19.52-11.488 31.184-12.952zm-42.504 24.256l23.032 23.032c-1.488 2.528-2.64 5.248-3.4 8.152h-32.584c1.464-11.664 6.072-22.336 12.952-31.184zm-12.944 47.176h32.576v8e-3c0.752 2.904 1.904 5.632 3.4 8.152l-23.024 23.024c-6.88-8.848-11.488-19.52-12.952-31.184zm55.44 55.456c-11.664-1.464-22.336-6.072-31.184-12.952l23.032-23.032c2.528 1.488 5.248 2.64 8.152 3.4v32.584zm-8-63.448c0-8.824 7.176-16 16-16s16 7.176 16 16-7.176 16-16 16-16-7.176-16-16zm23.992 63.44v-32.576h8e-3c2.904-0.752 5.632-1.904 8.152-3.4l23.024 23.024c-8.848 6.88-19.52 11.488-31.184 12.952zm42.504-24.256l-23.032-23.032c1.488-2.528 2.64-5.248 3.4-8.152h32.584c-1.464 11.664-6.072 22.336-12.952 31.184zm-19.632-47.176v-8e-3c-0.752-2.904-1.904-5.632-3.4-8.152l23.024-23.024c6.88 8.848 11.488 19.52 12.952 31.184h-32.576z"/>
  </symbol>

  <symbol id="no-privilege" viewBox="0 0 129 129">
    <path
      d="m64.5 6.5c-32 0-58 26-58 58 0 15.9 6.4 30.3 16.8 40.8 0 0 0.1 0.1 0.1 0.2 0 0 0.1 0 0.1 0.1 10.5 10.5 25 17 41 17 32 0 58-26 58-58s-26-58.1-58-58.1zm-49.9 58c0-27.5 22.4-49.8 49.9-49.8 12.3 0 23.5 4.5 32.2 11.8l-70.2 70.2c-7.4-8.7-11.9-19.9-11.9-32.2zm49.9 49.9c-12.3 0-23.6-4.5-32.3-11.9l70.2-70.2c7.4 8.7 11.9 20 11.9 32.3 0.1 27.4-22.3 49.8-49.8 49.8z"/>
  </symbol>

  <symbol id="not-dtp" viewBox="0 0 510 510">
    <g stroke="null">
      <path
        d="m435.41 75.295c-99.472-99.081-261.34-99.081-360.81 0-99.481 99.091-99.481 260.31 0 359.4 49.731 49.536 115.07 74.323 180.41 74.323s130.67-24.778 180.41-74.323c99.472-99.091 99.472-260.32 0-359.4h-0.01zm-346.94 13.821c45.914-45.734 106.22-68.605 166.53-68.605 57.228 0 114.31 20.858 159.24 62.037l-332.36 331.05c-84.909-91.907-82.888-235.36 6.5843-324.49l0.0057 8e-3zm333.06 331.75c-89.482 89.131-233.49 91.145-325.77 6.5585l332.36-331.04c84.919 91.907 82.898 235.36-6.5843 324.49l-0.0057-0.0085z"
        stroke="null"/>
    </g>
    <g stroke="null">
      <g transform="matrix(.7259 0 0 .7259 -2247.6 -2284.3)" stroke="null">
        <path
          d="m3521.9 3317.6l-50.3 65.9 32.2-76.9c0.8-4 4-6.3 6.3-6.3 0.8 0 1.5 0.8 3.1 1.5l4.7 2.3 4.7 2.3c4.1 2.6 3.3 6.4-0.7 11.2zm-68.2 72.2l14.1-110.7c1.5-7.8-0.8-13.3-6.3-13.3h-7.1-8.6c-5.5 0-7.8 4.7-6.3 13.3l14.2 110.7zm19.6 120c4.7 11 6.3 18.101 6.3 28.2v91.8 12.601c0 4-3.1 7.8-7.8 7.8h-40.8c-4.7 0-7.8-3.101-7.8-7.8v-12.601-13.3h-217.5v13.3 12.601c0 4-3.1 7.8-7.8 7.8h-41c-4.7 0-7.8-3.101-7.8-7.8v-12.601-91.8c0-10.3 1.5-18.1 6.3-28.2l51-106.7c5.5-12.6 21.2-22.7 35.3-22.7h144.4c14.1 0 29.9 10.3 36.2 22.7l51 106.7zm-278.7-4.6h238.5l-34.5-73.7c-7.1-14.1-13.3-17.3-28.2-17.3h-113-5.5c-11 1.5-16.5 5.5-21.9 17.3l-35.4 73.7zm33 53.3c0-14.1-11.8-25.1-25.9-25.1s-25.1 11-25.1 25.1 11 25.9 25.1 25.9 25.9-11.7 25.9-25.9zm224.4 0c0-14.1-11.8-25.1-25.9-25.1s-25.1 11-25.1 25.1 11 25.9 25.1 25.9c14.1 0.1 25.9-11.7 25.9-25.9zm-15.6-168l-32.2-76.9c-1.5-4-4-6.3-6.3-6.3h-2.3s-0.8 0.8-1.5 0.8l-4.7 2.3-4 3.1c-4 2.3-3.1 6.3 0.8 11l50.2 66zm322.4 150.7l-23.601 88.7-3.1 11.8c-0.8 4-5.5 6.3-9.4 5.5l-39.199-10.3c-4-0.801-6.301-5.5-5.5-9.4l3.1-11.8 4-12.601-193.9-51.8v-14.899c0-6.301-0.8-13.301-2.3-19.601 10.3-0.8 19.601-7.8 22.7-18.899 4-13.301-4.7-27.4-18.1-31.4-8.601-1.5-17.301 0.8-23.601 6.3l-18.1-37.7c0.8-0.8 1.5-2.3 2.3-3.1l76.9-89.5c7.1-8.6 18.899-13.3 29.899-14.1 4 0 7.101 0 10.3 0.8l137.4 35.3c14.1 4 26.7 18.1 29 31.4l21.9 116.2c2.502 11.8 1.802 19.8-0.698 29.1zm-33.7-40.7l-14.9-80c-3.1-15.6-8.6-20.4-22.699-24.4l-109.1-29.9c-5.5-1.5-9.399-1.5-13.3-1.5-6.3 0.8-11.8 4.7-18.1 11.8l-53.4 61.9 231.5 62.1zm-14.9 25.1c-1.5-0.8-3.1-0.8-4.699-0.8h-4.7c-10.3 0.8-18.9 7.8-21.2 18.9-4 13.3 4 27.399 17.3 31.399s27.4-4.699 31.4-18.1c3.799-13.499-4.701-27.599-18.101-31.399z"
          stroke="null"/>
      </g>
    </g>
  </symbol>

  <symbol id="dtp" viewBox="0 0 611.962 611.962">
    <path
      d="m372.8 165.58l-50.3 65.9 32.2-76.9c0.8-4 4-6.3 6.3-6.3 0.8 0 1.5 0.8 3.1 1.5l4.7 2.3 4.7 2.3c4.1 2.6 3.3 6.4-0.7 11.2zm-68.2 72.2l14.1-110.7c1.5-7.8-0.8-13.3-6.3-13.3h-7.1-8.6c-5.5 0-7.8 4.7-6.3 13.3l14.2 110.7zm19.6 120c4.7 11 6.3 18.101 6.3 28.2v104.4c0 4-3.1 7.8-7.8 7.8h-40.8c-4.7 0-7.8-3.101-7.8-7.8v-25.901h-217.5v25.901c0 4-3.1 7.8-7.8 7.8h-41c-4.7 0-7.8-3.101-7.8-7.8v-104.4c0-10.3 1.5-18.1 6.3-28.2l51-106.7c5.5-12.6 21.2-22.7 35.3-22.7h144.4c14.1 0 29.9 10.3 36.2 22.7l51 106.7zm-278.7-4.6h238.5l-34.5-73.7c-7.1-14.1-13.3-17.3-28.2-17.3h-113-5.5c-11 1.5-16.5 5.5-21.9 17.3l-35.4 73.7zm33 53.3c0-14.1-11.8-25.1-25.9-25.1s-25.1 11-25.1 25.1 11 25.9 25.1 25.9 25.9-11.7 25.9-25.9zm224.4 0c0-14.1-11.8-25.1-25.9-25.1s-25.1 11-25.1 25.1 11 25.9 25.1 25.9c14.1 0.1 25.9-11.7 25.9-25.9zm-15.6-168l-32.2-76.9c-1.5-4-4-6.3-6.3-6.3h-2.3s-0.8 0.8-1.5 0.8l-4.7 2.3-4 3.1c-4 2.3-3.1 6.3 0.8 11l50.2 66zm322.4 150.7l-23.601 88.7-3.1 11.8c-0.8 4-5.5 6.3-9.4 5.5l-39.199-10.3c-4-0.801-6.301-5.5-5.5-9.4l3.1-11.8 4-12.601-193.9-51.8v-14.899c0-6.301-0.8-13.301-2.3-19.601 10.3-0.8 19.601-7.8 22.7-18.899 4-13.301-4.7-27.4-18.1-31.4-8.601-1.5-17.301 0.8-23.601 6.3l-18.1-37.7c0.8-0.8 1.5-2.3 2.3-3.1l76.9-89.5c7.1-8.6 18.899-13.3 29.899-14.1 4 0 7.101 0 10.3 0.8l137.4 35.3c14.1 4 26.7 18.1 29 31.4l21.9 116.2c2.502 11.8 1.802 19.8-0.698 29.1zm-33.7-40.7l-14.9-80c-3.1-15.6-8.6-20.4-22.699-24.4l-109.1-29.9c-5.5-1.5-9.399-1.5-13.3-1.5-6.3 0.8-11.8 4.7-18.1 11.8l-53.4 61.9 231.5 62.1zm-14.9 25.1c-1.5-0.8-3.1-0.8-4.699-0.8h-4.7c-10.3 0.8-18.9 7.8-21.2 18.9-4 13.3 4 27.399 17.3 31.399s27.4-4.699 31.4-18.1c3.799-13.499-4.701-27.599-18.101-31.399z"/>
  </symbol>

  <symbol id="less-one" viewBox="0 0 512 512">
    <path
      d="m256 0c-141.39 0-256 114.61-256 256s114.61 256 256 256 256-114.61 256-256-114.61-256-256-256zm0 472c-119.3 0-216-96.703-216-216s96.703-216 216-216 216 96.703 216 216-96.703 216-216 216z"/>
    <path
      d="m321.74 201.25h-61.703v-25h19.312c6.859 0 13.422-1.219 19.5-3.594 6.172-2.375 11.438-5.641 15.797-9.797 4.358-4.203 7.922-9.25 10.547-15.234 2.734-5.906 4.047-12.5 4.047-19.625h26.797v256h-34.297v-182.75z"/>
    <g stroke="null">
      <g transform="matrix(1.2882 0 0 1.6771 85.325 145.83)" stroke="null">
        <g stroke="null">
          <path
            d="m122.43 44.117c-1.445-3.771-5.679-5.649-9.438-4.207l-88.918 34.105c-2.753 1.055-4.603 3.662-4.688 6.609-0.087 2.948 1.608 5.656 4.295 6.872l88.917 40.196c0.978 0.44 2 0.65 3.006 0.65 2.784 0 5.442-1.6 6.665-4.302 1.661-3.678 0.029-8.007-3.648-9.671l-72.966-32.977 72.568-27.834c3.769-1.445 5.655-5.672 4.207-9.441z"
            stroke="null"/>
        </g>
      </g>
    </g>
  </symbol>

  <symbol id="one" viewBox="0 0 512 512">
    <path
      d="m256 0c-141.39 0-256 114.61-256 256s114.61 256 256 256 256-114.61 256-256-114.61-256-256-256zm0 472c-119.3 0-216-96.703-216-216s96.703-216 216-216 216 96.703 216 216-96.703 216-216 216z"/>
    <path
      d="M249.703,201.25H188v-25h19.312c6.859,0,13.422-1.219,19.5-3.594c6.172-2.375,11.438-5.641,15.797-9.797    c4.358-4.203,7.922-9.25,10.547-15.234c2.734-5.906,4.047-12.5,4.047-19.625H284v256h-34.297V201.25z"/>
  </symbol>

  <symbol id="two" viewBox="0 0 512 512">
    <path
      d="m256 0c-141.39 0-256 114.61-256 256s114.61 256 256 256 256-114.61 256-256-114.61-256-256-256zm0 472c-119.3 0-216-96.703-216-216s96.703-216 216-216 216 96.703 216 216-96.703 216-216 216z"/>
    <path
      d="m176 209.75c2.531-24.406 10.969-44.141 25.375-59.219 14.344-15.031 34-22.531 58.859-22.531 12.233 0 23.172 2.141 32.594 6.484 9.422 4.297 17.375 10.141 23.719 17.484 6.328 7.281 11.219 15.547 14.516 24.797 3.281 9.266 4.938 18.844 4.938 28.703 0 8.625-0.984 16.391-3.062 23.266-2.095 6.875-4.953 12.984-8.688 18.297-3.75 5.438-8.031 10.375-13.109 15-4.922 4.688-10.327 9.078-16.188 13.234-10.845 8.405-22.125 16.452-33.672 24.202-11.594 7.75-22.719 16.531-33.375 26.328-3.875 3.672-7.062 7.438-9.594 11.453-2.5 4.017-4.594 9.031-6.266 15.017h117.38v31.735h-150.89v-24.203c0-10.047 3.188-20 9.625-29.578 6.438-9.734 14.438-19.188 24.125-28.219 9.625-9.031 20.188-17.828 31.781-26.359 11.609-8.516 22.531-16.766 32.891-24.781 7.844-5.984 14.031-12.359 18.672-19.234 4.516-6.859 6.859-15.625 6.859-26.344 0-15.172-3.812-27.031-11.734-35.531-7.781-8.484-17.938-12.734-30.516-12.734-15.359 0-27.531 4.703-36.453 14.109-9 9.375-13.438 22.25-13.438 38.625l-34.343-1e-3z"/>
  </symbol>

  <symbol id="three" viewBox="0 0 512 512">
    <path
      d="m256 0c-141.39 0-256 114.61-256 256s114.61 256 256 256 256-114.61 256-256-114.61-256-256-256zm0 472c-119.3 0-216-96.703-216-216s96.703-216 216-216 216 96.703 216 216-96.703 216-216 216z"/>
    <path
      d="m182.83 204.78c2.688-24.062 9.672-42.922 20.938-56.5 11.265-13.515 29.046-20.281 53.484-20.281 21.156 0 37.938 5.969 50.25 17.875s18.469 27.75 18.469 47.469c0 14.125-2.562 25.375-7.781 33.781-5.233 8.375-13.453 14.906-24.78 19.625 5.422 1.75 10.641 4.25 15.688 7.5 5.188 3.25 9.734 7.406 13.672 12.594 4.062 5.156 7.267 11.234 9.734 18.344 2.344 7.047 3.5 15.359 3.5 25.095 0 12.172-2.078 22.688-6.234 31.75-4.28 9.188-9.983 16.905-17.077 22.983-7.234 6.219-15.642 10.938-25.047 14.188-9.531 3.233-19.673 4.797-30.392 4.797-21.969 0-40.156-6.983-54.5-20.983-14.344-13.984-23.25-34.548-26.75-62h32.562c3.188 20 8.734 34.047 16.5 42.202 7.75 8.031 18.531 12.062 32.188 12.062 6.156 0 12.094-1.017 17.703-3.048 5.641-2.016 10.516-5.016 14.812-9.016 4.312-4 7.734-8.734 10.392-14.281 2.5-5.688 3.702-11.905 3.702-18.655 0-13.517-4.125-25.017-12.5-34.438-8.25-9.375-19.641-14.094-34.108-14.094h-18.516v-28.719h18.516c6.719 0 12.422-1.062 17.108-3.281 4.656-2.234 8.484-5.094 11.453-8.625 2.953-3.5 5.031-7.5 6.22-11.875 1.297-4.469 1.797-8.875 1.797-13.25 0-12.375-3.406-22.109-10.25-29.156-6.828-7.078-15.922-10.594-27.188-10.594-6.953 0-12.797 1.281-17.656 3.984-4.812 2.641-8.875 6.156-12.078 10.547-3.188 4.453-5.719 9.594-7.625 15.484-1.859 5.875-3.219 12.109-4 18.516h-32.206z"/>
  </symbol>

  <symbol id="four" viewBox="0 0 512 512">
    <path
      d="m256 0c-141.39 0-256 114.61-256 256s114.61 256 256 256 256-114.61 256-256-114.61-256-256-256zm0 472c-119.3 0-216-96.703-216-216s96.703-216 216-216 216 96.703 216 216-96.703 216-216 216z"/>
    <path
      d="m274.2 384v-62.5h-98.203v-37.203l98.203-156.3h29.297v164.48h32.5v29.016h-32.5v62.5h-29.297zm-71.765-91.516h71.766v-115.52l-71.766 115.52z"/>
  </symbol>

  <symbol id="limits-1" viewBox="0 0 495 344">
    <path d="m2 341h117.8v-199.1h-117.8v199.1zm20.9-179.3h76.1v158.5h-76.1v-158.5z"/>
    <path d="m188.6 341h116.8 1v-280.4h-117.8v280.4zm19.8-260.6h76.1v239.8h-76.1v-239.8z"/>
    <path d="m374.2 3.31v338.46h117.8v-338.46h-117.8zm96.9 324.02h-76.1v-309.59h76.1v309.59z" stroke="null"/>
  </symbol>

  <symbol id="limits-2" viewBox="0 0 675 425">
    <path d="m2 421h117.8v-199.1h-117.8v199.1zm20.9-179.3h76.1v158.5h-76.1v-158.5z"/>
    <path d="m188.6 421h116.8 1v-280.4h-117.8v280.4zm19.8-260.6h76.1v239.8h-76.1v-239.8z"/>
    <path d="m374.2 83.31v338.46h117.8v-338.46h-117.8zm96.9 324.02h-76.1v-309.59h76.1v309.59z" stroke="null"/>
    <path d="m374.2 83.31v338.46h117.8v-338.46h-117.8zm96.9 324.02h-76.1v-309.59h76.1v309.59z" stroke="null"/>
    <path d="m555.52 2.058v419.71h117.8v-419.71h-117.8zm96.9 401.81h-76.1v-383.91h76.1v383.91z" stroke="null"/>
  </symbol>

  <symbol id="limits-3" viewBox="0 0 860 505">
    <path d="m4 501.27h117.8v-199.1h-117.8v199.1zm20.9-179.3h76.1v158.5h-76.1v-158.5z"/>
    <path d="m190.6 501.27h116.8 1v-280.4h-117.8v280.4zm19.8-260.6h76.1v239.8h-76.1v-239.8z"/>
    <path d="m376.2 163.58v338.46h117.8v-338.46h-117.8zm96.9 324.02h-76.1v-309.59h76.1v309.59z" stroke="null"/>
    <path d="m376.2 163.58v338.46h117.8v-338.46h-117.8zm96.9 324.02h-76.1v-309.59h76.1v309.59z" stroke="null"/>
    <path d="m557.52 82.33v419.71h117.8v-419.71h-117.8zm96.9 401.81h-76.1v-383.91h76.1v383.91z" stroke="null"/>
    <path d="m737.59 3.5794v498.46h117.8v-498.46h-117.8zm96.9 477.2h-76.1v-455.94h76.1v455.94z" stroke="null"/>
  </symbol>

  <symbol id="limits-4" viewBox="0 0 1040 595">
    <path d="m2.8431 593.23h117.8v-199.1h-117.8v199.1zm20.9-179.3h76.1v158.5h-76.1v-158.5z"/>
    <path d="m189.44 593.23h116.8 1v-280.4h-117.8v280.4zm19.8-260.6h76.1v239.8h-76.1v-239.8h1e-5z"/>
    <path d="m375.04 255.53v338.46h117.8v-338.46h-117.8zm96.9 324.02h-76.1v-309.59h76.1v309.59z" stroke="null"/>
    <path d="m375.04 255.53v338.46h117.8v-338.46h-117.8zm96.9 324.02h-76.1v-309.59h76.1v309.59z" stroke="null"/>
    <path d="m556.36 174.28v419.71h117.8v-419.71h-117.8zm96.9 401.81h-76.1v-383.91h76.1v383.91z" stroke="null"/>
    <path d="m736.43 95.534v498.46h117.8v-498.46h-117.8zm96.9 477.2h-76.1v-455.94h76.1v455.94z" stroke="null"/>
    <path d="m918.48 2.2011v591.79h117.8v-591.79h-117.8zm96.9 566.55h-76.1v-541.31h76.1v541.31z" stroke="null"/>
  </symbol>

  <symbol id="limits-5" viewBox="0 0 1220 680">
    <path d="m2.8431 676.56h117.8v-199.1h-117.8v199.1zm20.9-179.3h76.1v158.5h-76.1v-158.5z"/>
    <path d="m189.44 676.56h116.8 1v-280.4h-117.8v280.4zm19.8-260.6h76.1v239.8h-76.1v-239.8h1e-5 -1e-5z"/>
    <path d="m375.04 338.86v338.46h117.8v-338.46h-117.8zm96.9 324.02h-76.1v-309.59h76.1v309.59z" stroke="null"/>
    <path d="m375.04 338.86v338.46h117.8v-338.46h-117.8zm96.9 324.02h-76.1v-309.59h76.1v309.59z" stroke="null"/>
    <path d="m556.36 257.61v419.71h117.8v-419.71h-117.8zm96.9 401.81h-76.1v-383.91h76.1v383.91z" stroke="null"/>
    <path d="m736.43 178.87v498.46h117.8v-498.46h-117.8zm96.9 477.2h-76.1v-455.94h76.1v455.94z" stroke="null"/>
    <path d="m918.48 85.534v591.79h117.8v-591.79h-117.8zm96.9 566.55h-76.1v-541.31h76.1v541.31z" stroke="null"/>
    <path d="m1098.8 3.868v673.46h117.8v-673.46h-117.8zm96.9 644.73h-76.1v-616.01h76.1v616.01z" stroke="null"/>
  </symbol>

  <symbol id="sort" viewBox="0 0 292.362 292.362">
    <path
      d="m286.94 69.377c-3.614-3.617-7.898-5.424-12.848-5.424h-255.81c-4.952 0-9.233 1.807-12.85 5.424-3.617 3.621-5.424 7.902-5.424 12.851 0 4.948 1.807 9.229 5.424 12.847l127.91 127.91c3.621 3.617 7.902 5.428 12.85 5.428s9.233-1.811 12.847-5.428l127.91-127.91c3.613-3.617 5.427-7.898 5.427-12.847 0-4.948-1.814-9.229-5.427-12.85z"/>
  </symbol>


  <symbol id="park" viewBox="0 0 437 235">
    <path
      d="m429.21 130.02c-0.717 0-1.451 0.102-2.185 0.304l-8.301 2.286-8.618-20.995c-2.441-5.948-9.659-10.787-16.089-10.787h-27.84v-16.091c0-5.972-1.846-15.328-4.114-20.855l-1.391-3.388h1.054c4.819 0 8.74-3.921 8.74-8.74v-4.894c0-4.128-2.847-7.125-6.769-7.125-0.717 0-1.451 0.103-2.185 0.304l-8.3 2.286-8.619-20.995c-2.441-5.948-9.659-10.787-16.089-10.787h-80.659c-6.429 0-13.646 4.839-16.089 10.787l-8.607 20.967-8.195-2.257c-0.733-0.202-1.469-0.305-2.185-0.305-3.923 0-6.77 2.996-6.77 7.125v4.894c0 4.819 3.921 8.74 8.74 8.74h0.939l-1.391 3.388c-2.269 5.525-4.114 14.88-4.114 20.855v41.71c0 4.819 3.921 8.74 8.74 8.74h11.417c4.819 0 8.74-3.921 8.74-8.74v-10.416h56.384l-6.794 16.55-8.196-2.258c-0.733-0.202-1.468-0.304-2.185-0.304-3.922 0-6.769 2.997-6.769 7.125v4.894c0 4.819 3.921 8.74 8.74 8.74h0.939l-1.392 3.389c-2.268 5.525-4.114 14.88-4.114 20.855v41.71c0 4.819 3.921 8.74 8.74 8.74h11.416c4.819 0 8.74-3.921 8.74-8.74v-10.416h98.212v10.416c0 4.819 3.921 8.74 8.74 8.74h11.415c4.819 0 8.74-3.921 8.74-8.74v-41.71c0-5.975-1.846-15.33-4.114-20.855l-1.391-3.389h1.055c4.819 0 8.74-3.921 8.74-8.74v-4.894c3e-3 -4.128-2.844-7.124-6.766-7.124zm-79.854-45.991v11.886c0 1.923-1.573 3.496-3.496 3.496h-24.767c-1.923 0-3.496-1.573-3.496-3.496v-11.886c0-1.923 1.573-3.496 3.496-3.496h24.767c1.923 0 3.496 1.573 3.496 3.496zm-90.836 11.886c0 1.923-1.573 3.496-3.496 3.496h-24.766c-1.923 0-3.496-1.573-3.496-3.496v-11.886c0-1.923 1.573-3.496 3.496-3.496h24.767c1.923 0 3.496 1.573 3.496 3.496v11.886h-1e-3zm-24.766-33.7c-3.846 0-5.797-2.911-4.337-6.469l13.036-31.757c1.461-3.558 5.802-6.469 9.647-6.469h72.149c3.846 0 8.188 2.911 9.647 6.469l13.038 31.757c1.46 3.558-0.491 6.469-4.337 6.469h-108.84zm61.174 83.816l13.037-31.757c1.46-3.558 5.802-6.469 9.647-6.469h72.149c3.846 0 8.188 2.911 9.648 6.469l13.036 31.757c1.461 3.558-0.491 6.469-4.337 6.469h-108.84c-3.846 0-5.797-2.911-4.337-6.469zm29.104 40.169c0 1.923-1.573 3.496-3.496 3.496h-24.767c-1.923 0-3.496-1.573-3.496-3.496v-11.886c0-1.923 1.573-3.496 3.496-3.496h24.768c1.923 0 3.496 1.573 3.496 3.496v11.886h-1e-3zm90.834 0c0 1.923-1.573 3.496-3.496 3.496h-24.766c-1.923 0-3.496-1.573-3.496-3.496v-11.886c0-1.923 1.573-3.496 3.496-3.496h24.766c1.923 0 3.496 1.573 3.496 3.496v11.886z"/>
    <path
      d="m223.24 138.87c-0.717 0-1.451 0.102-2.185 0.304l-8.301 2.286-8.618-20.995c-2.441-5.948-9.659-10.787-16.089-10.787h-27.84v-16.091c0-5.972-1.846-15.328-4.114-20.855l-1.391-3.388h1.054c4.819 0 8.74-3.921 8.74-8.74v-4.894c0-4.128-2.847-7.125-6.769-7.125-0.717 0-1.451 0.103-2.185 0.304l-8.3 2.286-8.619-20.995c-2.441-5.948-9.659-10.787-16.089-10.787h-80.659c-6.429 0-13.646 4.839-16.089 10.787l-8.607 20.967-8.195-2.257c-0.733-0.202-1.469-0.305-2.185-0.305-3.923 0-6.77 2.996-6.77 7.125v4.894c0 4.819 3.921 8.74 8.74 8.74h0.939l-1.391 3.388c-2.269 5.525-4.114 14.88-4.114 20.855v41.71c0 4.819 3.921 8.74 8.74 8.74h11.417c4.819 0 8.74-3.921 8.74-8.74v-10.416h56.384l-6.794 16.55-8.196-2.258c-0.733-0.202-1.468-0.304-2.185-0.304-3.922 0-6.769 2.997-6.769 7.125v4.894c0 4.819 3.921 8.74 8.74 8.74h0.939l-1.392 3.389c-2.268 5.525-4.114 14.88-4.114 20.855v41.71c0 4.819 3.921 8.74 8.74 8.74h11.416c4.819 0 8.74-3.921 8.74-8.74v-10.416h98.212v10.416c0 4.819 3.921 8.74 8.74 8.74h11.415c4.819 0 8.74-3.921 8.74-8.74v-41.71c0-5.975-1.846-15.33-4.114-20.855l-1.391-3.389h1.055c4.819 0 8.74-3.921 8.74-8.74v-4.894c3e-3 -4.128-2.844-7.124-6.766-7.124zm-79.854-45.991v11.886c0 1.923-1.573 3.496-3.496 3.496h-24.767c-1.923 0-3.496-1.573-3.496-3.496v-11.886c0-1.923 1.573-3.496 3.496-3.496h24.767c1.923 0 3.496 1.573 3.496 3.496zm-90.836 11.886c0 1.923-1.573 3.496-3.496 3.496h-24.766c-1.923 0-3.496-1.573-3.496-3.496v-11.886c0-1.923 1.573-3.496 3.496-3.496h24.767c1.923 0 3.496 1.573 3.496 3.496v11.886h-1e-3zm-24.766-33.7c-3.846 0-5.797-2.911-4.337-6.469l13.036-31.757c1.461-3.558 5.802-6.469 9.647-6.469h72.149c3.846 0 8.188 2.911 9.647 6.469l13.038 31.757c1.46 3.558-0.491 6.469-4.337 6.469h-108.84zm61.174 83.816l13.037-31.757c1.46-3.558 5.802-6.469 9.647-6.469h72.149c3.846 0 8.188 2.911 9.648 6.469l13.036 31.757c1.461 3.558-0.491 6.469-4.337 6.469h-108.84c-3.846 0-5.797-2.911-4.337-6.469zm29.104 40.169c0 1.923-1.573 3.496-3.496 3.496h-24.767c-1.923 0-3.496-1.573-3.496-3.496v-11.886c0-1.923 1.573-3.496 3.496-3.496h24.768c1.923 0 3.496 1.573 3.496 3.496v11.886h-1e-3zm90.834 0c0 1.923-1.573 3.496-3.496 3.496h-24.766c-1.923 0-3.496-1.573-3.496-3.496v-11.886c0-1.923 1.573-3.496 3.496-3.496h24.766c1.923 0 3.496 1.573 3.496 3.496v11.886z"/>
  </symbol>


  <symbol id="not-park" viewBox="0 0 235.21 235.21">
    <path
      d="m225.53 70.224c-1.024 0-2.075 0.146-3.124 0.436l-11.87 3.27-12.326-30.026c-3.491-8.507-13.814-15.427-23.009-15.427h-115.36c-9.196 0-19.518 6.92-23.009 15.427l-12.31 29.985-11.721-3.229c-1.048-0.289-2.1-0.436-3.123-0.436-5.609 0-9.681 4.285-9.681 10.19v6.999c0 6.893 5.607 12.5 12.5 12.5h1.342l-1.989 4.846c-3.244 7.904-5.883 21.283-5.883 29.826v59.651c0 6.893 5.608 12.5 12.5 12.5h16.326c6.893 0 12.5-5.607 12.5-12.5v-14.897h140.45v14.897c0 6.893 5.607 12.5 12.5 12.5h16.325c6.893 0 12.5-5.607 12.5-12.5v-59.651c0-8.542-2.639-21.922-5.884-29.826l-1.989-4.846h1.508c6.892 0 12.5-5.607 12.5-12.5v-6.999c0-5.905-4.071-10.19-9.681-10.19zm-192.04 22.899l18.645-45.417c2.089-5.088 8.298-9.251 13.798-9.251h103.18c5.5 0 11.709 4.163 13.797 9.251l18.645 45.417c2.089 5.088-0.702 9.251-6.202 9.251h-155.66c-5.5 0-8.291-4.163-6.203-9.251zm41.623 57.446c0 2.75-2.25 5-5 5h-35.42c-2.75 0-5-2.25-5-5v-16.999c0-2.75 2.25-5 5-5h35.42c2.75 0 5 2.25 5 5v16.999zm129.91 0c0 2.75-2.25 5-5 5h-35.419c-2.75 0-5-2.25-5-5v-16.999c0-2.75 2.25-5 5-5h35.419c2.75 0 5 2.25 5 5v16.999z"/>
  </symbol>

  <symbol id="park-5" viewBox="0 0 512 512">
    <path
      d="m256 0c-141.39 0-256 114.61-256 256s114.61 256 256 256 256-114.61 256-256-114.61-256-256-256zm0 472c-119.3 0-216-96.703-216-216s96.703-216 216-216 216 96.703 216 216-96.703 216-216 216z"/>
    <path
      d="m183.22 263.84l15.234-135.84h124.06v29.031h-101.19l-6.828 70.109 1.219 0.484c5.844-5.641 12.719-9.656 20.656-12.031 7.875-2.375 15.719-3.594 23.469-3.594 10.969 0 21.109 2.234 30.5 6.719 9.266 4.406 17.359 10.531 24.078 18.281 6.734 7.75 12.078 16.891 15.906 27.5 3.797 10.531 5.672 21.781 5.672 33.733 0 11.017-1.656 21.578-5.031 31.984-3.531 10.25-8.656 19.328-15.391 27.5-6.734 8-15.297 14.328-25.656 19.078-10.406 4.75-22.578 7.203-36.484 7.203-19.531 0-36.375-6.188-50.531-18.281-14.219-12.234-23.188-30.172-26.906-53.688h32.516c2.922 13.453 8.453 23.969 16.641 31.5 8.172 7.531 17.719 11.453 28.656 11.453 7.5 0 14.329-1.5 20.422-4.5 6.219-2.969 11.453-6.984 15.906-12.017 4.328-5.155 7.828-11.219 10.155-18.422 2.453-7.078 3.595-14.733 3.595-22.766 0-8.298-1.392-15.859-4.345-22.767-3.062-6.797-6.905-12.733-11.858-17.641-4.922-4.891-10.625-8.75-17.031-11.625-6.424-2.774-12.97-4.243-19.658-4.243-7.469 0-14.719 1.844-21.688 5.375-6.938 3.609-12.812 9.375-17.625 17.469h-28.468z"/>
  </symbol>

  <symbol id="park-10" viewBox="0 0 512 512">
    <path
      d="m256 0c-141.39 0-256 114.61-256 256s114.61 256 256 256 256-114.61 256-256-114.61-256-256-256zm0 472c-119.3 0-216-96.703-216-216s96.703-216 216-216 216 96.703 216 216-96.703 216-216 216z"/>
    <path
      d="m151.34 205.54h-61.703v-25h19.312c6.859 0 13.422-1.219 19.5-3.594 6.172-2.375 11.438-5.641 15.797-9.797 4.358-4.203 7.922-9.25 10.547-15.234 2.734-5.906 4.047-12.5 4.047-19.625h26.797v256h-34.297v-182.75z"/>
    <g stroke="null">
      <g transform="matrix(1.0097 0 0 1.0097 -2106.9 -2095.6)">
        <title transform="translate(2143.3 2076.4)">background</title>
        <rect x="2142.3" y="2075.4" width="582" height="402" fill="none"/>
      </g>
      <g transform="matrix(1.0097 0 0 1.0097 -2106.9 -2095.6)">
        <title transform="translate(2143.3 2076.4)">Layer 1</title>
        <g stroke="null">
          <path
            d="m2399.3 2204.4c-26.516 0-46.453 11.344-59.922 33.891-13.374 22.625-20.062 53.359-20.062 92.125 0 42.938 6.688 75.25 20.062 97.188 13.469 21.812 33.407 32.796 59.922 32.796 26.532 0 46.562-10.984 59.922-32.797 13.391-21.937 20.094-54.25 20.094-97.187 0-84.016-26.734-126.02-80.016-126.02zm36.235 202.72c-7.453 16.484-19.609 24.578-36.234 24.578-16.688 0-28.703-8.094-36.266-24.578-7.516-16.484-11.219-42.016-11.219-76.703 0-34.391 3.703-59.156 11.219-74.484 7.562-15.266 19.578-22.906 36.266-22.906 16.625 0 28.781 7.641 36.234 22.906 7.547 15.328 11.281 40.094 11.281 74.484 0 34.687-3.734 60.218-11.281 76.703z"
            stroke="null"/>
        </g>
      </g>
    </g>
  </symbol>

  <symbol id="park-20" viewBox="0 0 512 512">
    <g vector-effect="non-scaling-stroke">
      <path
        d="m256 0c-141.39 0-256 114.61-256 256s114.61 256 256 256 256-114.61 256-256-114.61-256-256-256zm0 472c-119.3 0-216-96.703-216-216s96.703-216 216-216 216 96.703 216 216-96.703 216-216 216z"/>
      <g vector-effect="non-scaling-stroke">
        <path
          d="m82.082 193.75c2.531-24.406 10.969-44.141 25.375-59.219 14.344-15.031 34-22.531 58.859-22.531 12.233 0 23.172 2.141 32.594 6.484 9.422 4.297 17.375 10.141 23.719 17.484 6.328 7.281 11.219 15.547 14.516 24.797 3.281 9.266 4.938 18.844 4.938 28.703 0 8.625-0.984 16.391-3.062 23.266-2.095 6.875-4.953 12.984-8.688 18.297-3.75 5.438-8.031 10.375-13.109 15-4.922 4.688-10.327 9.078-16.188 13.234-10.845 8.405-22.125 16.452-33.672 24.202-11.594 7.75-22.719 16.531-33.375 26.328-3.875 3.672-7.062 7.438-9.594 11.453-2.5 4.017-4.594 9.031-6.266 15.017h117.38v31.735h-150.89v-24.203c0-10.047 3.188-20 9.625-29.578 6.438-9.734 14.438-19.188 24.125-28.219 9.625-9.031 20.188-17.828 31.781-26.359 11.609-8.516 22.531-16.766 32.891-24.781 7.844-5.984 14.031-12.359 18.672-19.234 4.516-6.859 6.859-15.625 6.859-26.344 0-15.172-3.812-27.031-11.734-35.531-7.781-8.484-17.938-12.734-30.516-12.734-15.359 0-27.531 4.703-36.453 14.109-9 9.375-13.438 22.25-13.438 38.625l-34.343-1e-3z"/>
        <g transform="matrix(.97442 0 0 .99917 -1973.8 -1967)">
          <title transform="translate(2131.9 1957.3)">background</title>
          <rect x="2130.9" y="1956.3" width="582" height="402" fill="none"/>
        </g>
        <g transform="matrix(.97442 0 0 .99917 -1973.8 -1967)">
          <title transform="translate(2131.9 1957.3)">Layer 1</title>
          <g stroke="null">
            <path
              d="m2387.9 2085.3c-26.516 0-46.453 11.344-59.922 33.891-13.374 22.625-20.062 53.359-20.062 92.125 0 42.938 6.688 75.25 20.062 97.188 13.469 21.812 33.407 32.796 59.922 32.796 26.532 0 46.562-10.984 59.922-32.797 13.391-21.937 20.094-54.25 20.094-97.187 0-84.016-26.734-126.02-80.016-126.02zm36.235 202.72c-7.453 16.484-19.609 24.578-36.234 24.578-16.688 0-28.703-8.094-36.266-24.578-7.516-16.484-11.219-42.016-11.219-76.703 0-34.391 3.703-59.156 11.219-74.484 7.562-15.266 19.578-22.906 36.266-22.906 16.625 0 28.781 7.641 36.234 22.906 7.547 15.328 11.281 40.094 11.281 74.484 0 34.687-3.734 60.218-11.281 76.703z"
              stroke="null"/>
          </g>
        </g>
      </g>
    </g>
  </symbol>


</svg>
