<svg xmlns="http://www.w3.org/2000/svg" xmlns:xlink="http://www.w3.org/1999/xlink" version="1.1" style="" xml:space="preserve" width="475.7777802502669" height="564.1111114643234"><rect id="backgroundrect" width="100%" height="100%" x="0" y="0" fill="none" stroke="none" class="" style=""/>





















<g class="currentLayer" style=""><title>Layer 1</title><path style="fill:#252525;" d="M439.80222208976744,71.26811068725586 L239.79322208976748,31.26611068725586 c-1.037,-0.20700000000000007 -2.102,-0.20700000000000007 -3.1390000000000002,0 L36.64422208976745,71.26811068725586 c-3.739,0.7480000000000003 -6.431,4.031 -6.431,7.845 v288.013 c0,2.363 1.045,4.605 2.854,6.125 l200.009,168.008 c2.938,2.469 7.353,2.469 10.291,0 l200.009,-168.008 c1.81,-1.52 2.854,-3.762 2.854,-6.125 V79.11311068725587 C446.23222208976745,75.30011068725585 443.5412220897675,72.01611068725586 439.80222208976744,71.26811068725586 z" id="svg_1" class="" stroke-width="44" stroke="#242424" stroke-opacity="1"/><path style="fill:#fff;" d="M405.578,97.50311068725586 L237.57100000000003,63.902110687255856 c-1.037,-0.20700000000000005 -2.102,-0.20700000000000005 -3.1390000000000002,0 L66.424,97.50311068725586 c-3.739,0.7480000000000002 -6.431,4.031 -6.431,7.845 v246.865 c0,2.363 1.045,4.605 2.854,6.125 l168.008,141.126 c2.938,2.469 7.353,2.469 10.291,0 l168.008,-141.126 c1.81,-1.52 2.854,-3.762 2.854,-6.125 V105.34911068725586 C412.008,101.53411068725586 409.317,98.25111068725586 405.578,97.50311068725586 z" id="svg_2" class="" stroke="#242424" stroke-opacity="1"/><path style="fill:#fff;" d="M94.84899999999999,352.15411068725587 c-1.81,-1.52 -2.854,-3.762 -2.854,-6.125 V99.16211068725586 c0,-3.813 2.6910000000000007,-7.097 6.431,-7.845 l-32.001,6.185 c-3.739,0.7480000000000002 -6.431,4.031 -6.431,7.845 v246.865 c0,2.363 1.045,4.605 2.854,6.125 l168.008,141.126 c2.938,2.469 7.353,2.469 10.291,0 l14.537,-12.212 L94.84899999999999,352.15411068725587 z" id="svg_3" class=""/><path style="fill:#fff;" d="M241.51281676620715,139.43207900948528 c-62.41842888889989,0 -113.2008534969345,50.782424608034596 -113.2008534969345,113.2008534969345 s50.782424608034596,113.2008534969345 113.2008534969345,113.2008534969345 s113.2008534969345,-50.782424608034596 113.2008534969345,-113.2008534969345 S303.93253196997335,139.43207900948528 241.51281676620715,139.43207900948528 z" id="svg_5" class="" stroke-width="17" stroke="none"/><path style="fill:#252525;" d="M296.64723224974875,232.38009907585592 c7.63575372544836,0 13.826625125302598,-6.190871399854238 13.826625125302598,-13.826625125302598 v-13.826625125302598 c0,-30.49807837013621 -24.81187878735551,-55.30822882935105 -55.30822882935105,-55.30822882935105 v-27.65497857874586 c0,-7.63575372544836 -6.190871399854238,-13.826625125302598 -13.826625125302598,-13.826625125302598 c-7.63575372544836,0 -13.826625125302598,6.190871399854238 -13.826625125302598,13.826625125302598 v28.04903739481698 c-31.06669832841428,3.4514712969036614 -55.30822882935105,29.856868629950295 -55.30822882935105,61.8292109040719 c0,34.310770248438395 27.912499471704617,62.22326972014302 62.22326972014302,62.22326972014302 h13.826625125302598 c19.06000273522963,0 34.56829114139716,15.506560078026864 34.56829114139716,34.56829114139716 c0,19.061731063370296 -15.506560078026864,34.56829114139716 -34.56829114139716,34.56829114139716 h-20.74166601609456 c-15.247310856927438,0 -27.65497857874586,-12.405939393677755 -27.65497857874586,-27.65497857874586 c0,-7.63575372544836 -6.190871399854238,-13.826625125302598 -13.826625125302598,-13.826625125302598 s-13.826625125302598,6.190871399854238 -13.826625125302598,13.826625125302598 c0,30.49807837013621 24.81187878735551,55.30822882935105 55.30822882935105,55.30822882935105 v27.65497857874586 c0,7.63575372544836 6.190871399854238,13.826625125302598 13.826625125302598,13.826625125302598 c7.63575372544836,0 13.826625125302598,-6.190871399854238 13.826625125302598,-13.826625125302598 v-28.04903739481698 c31.06669832841428,-3.4514712969036614 55.30822882935105,-29.856868629950295 55.30822882935105,-61.8292109040719 c0,-34.310770248438395 -27.912499471704617,-62.22326972014302 -62.22326972014302,-62.22326972014302 h-13.826625125302598 c-19.061731063370296,0 -34.56829114139716,-15.506560078026864 -34.56829114139716,-34.56829114139716 c0,-19.06000273522963 15.506560078026864,-34.56829114139716 34.56829114139716,-34.56829114139716 h20.74166601609456 c15.247310856927438,0 27.65497857874586,12.405939393677755 27.65497857874586,27.65497857874586 v13.826625125302598 C282.82060712444616,226.18922767600168 289.0114785243004,232.38009907585592 296.64723224974875,232.38009907585592 z" id="svg_6" class="" stroke="#242424" stroke-opacity="1" stroke-width="14"/><g id="svg_7" class="">
</g><g id="svg_8" class="">
</g><g id="svg_9" class="">
</g><g id="svg_10" class="">
</g><g id="svg_11" class="">
</g><g id="svg_12" class="">
</g><g id="svg_13" class="">
</g><g id="svg_14" class="">
</g><g id="svg_15" class="">
</g><g id="svg_16" class="">
</g><g id="svg_17" class="">
</g><g id="svg_18" class="">
</g><g id="svg_19" class="">
</g><g id="svg_20" class="">
</g><g id="svg_21" class="">
</g></g></svg>