<svg xmlns="http://www.w3.org/2000/svg" style="display: none;" aria-hidden="true">
	<symbol id="email" viewBox="0 0 511.626 511.627">
		<path d="m498.21 68.235c-8.945-8.947-19.701-13.418-32.261-13.418h-420.26c-12.562 0-23.318 4.471-32.264 13.418-8.947 8.945-13.418 19.7-13.418 32.264v310.63c0 12.566 4.471 23.312 13.418 32.257 8.945 8.953 19.701 13.422 32.264 13.422h420.27c12.56 0 23.315-4.469 32.261-13.422 8.949-8.945 13.418-19.697 13.418-32.257v-310.63c-1e-3 -12.564-4.469-23.319-13.419-32.264zm-23.13 342.89c0 2.475-0.903 4.616-2.714 6.424-1.81 1.81-3.949 2.706-6.42 2.706h-420.26c-2.474 0-4.616-0.896-6.423-2.706-1.809-1.808-2.712-3.949-2.712-6.424v-219.27c6.09 6.852 12.657 13.134 19.7 18.843 51.012 39.209 91.553 71.374 121.63 96.5 9.707 8.186 17.607 14.561 23.697 19.13 6.09 4.571 14.322 9.185 24.694 13.846 10.373 4.668 20.129 6.991 29.265 6.991h0.571c9.134 0 18.894-2.323 29.263-6.991 10.376-4.661 18.613-9.274 24.701-13.846 6.089-4.569 13.99-10.944 23.698-19.13 30.074-25.126 70.61-57.291 121.62-96.5 7.043-5.708 13.613-11.991 19.694-18.843v219.27zm0-303.2v3.14c0 11.229-4.421 23.745-13.271 37.543-8.851 13.798-18.419 24.792-28.691 32.974-36.74 28.936-74.897 59.101-114.5 90.506-1.14 0.951-4.474 3.757-9.996 8.418-5.514 4.668-9.894 8.241-13.131 10.712-3.241 2.478-7.471 5.475-12.703 8.993-5.236 3.518-10.041 6.14-14.418 7.851-4.377 1.707-8.47 2.562-12.275 2.562h-0.571c-3.806 0-7.895-0.855-12.275-2.562-4.377-1.711-9.185-4.333-14.417-7.851-5.231-3.519-9.467-6.516-12.703-8.993-3.234-2.471-7.614-6.044-13.132-10.712-5.52-4.661-8.854-7.467-9.995-8.418-39.589-31.406-77.75-61.57-114.49-90.506-27.981-22.076-41.969-49.106-41.969-81.083 0-2.472 0.903-4.615 2.712-6.421 1.809-1.809 3.949-2.714 6.423-2.714h420.27c1.52 0.855 2.854 1.093 3.997 0.715 1.143-0.385 1.998 0.331 2.566 2.138 0.571 1.809 1.095 2.664 1.57 2.57 0.477-0.096 0.764 1.093 0.859 3.571 0.089 2.473 0.137 3.718 0.137 3.718v3.849h-1e-3z"/>
	</symbol>

	<symbol id="phone" viewBox="0 0 401.998 401.998">
		<path d="m401.13 311.48c-1.137-3.426-8.371-8.473-21.697-15.129-3.61-2.098-8.754-4.949-15.41-8.566-6.662-3.617-12.709-6.95-18.13-9.996-5.432-3.045-10.521-5.995-15.276-8.846-0.76-0.571-3.139-2.234-7.136-5-4.001-2.758-7.375-4.805-10.14-6.14-2.759-1.327-5.473-1.995-8.138-1.995-3.806 0-8.56 2.714-14.268 8.135-5.708 5.428-10.944 11.324-15.7 17.706-4.757 6.379-9.802 12.275-15.126 17.7-5.332 5.427-9.713 8.138-13.135 8.138-1.718 0-3.86-0.479-6.427-1.424-2.566-0.951-4.518-1.766-5.858-2.423-1.328-0.671-3.607-1.999-6.845-4.004-3.244-1.999-5.048-3.094-5.428-3.285-26.075-14.469-48.438-31.029-67.093-49.676-18.649-18.658-35.211-41.019-49.676-67.097-0.19-0.381-1.287-2.19-3.284-5.424-2-3.237-3.333-5.518-3.999-6.854-0.666-1.331-1.475-3.283-2.425-5.852s-1.427-4.709-1.427-6.424c0-3.424 2.713-7.804 8.138-13.134 5.424-5.327 11.326-10.373 17.7-15.128 6.379-4.755 12.275-9.991 17.701-15.699 5.424-5.711 8.136-10.467 8.136-14.273 0-2.663-0.666-5.378-1.997-8.137-1.332-2.765-3.378-6.139-6.139-10.138-2.762-3.997-4.427-6.374-4.999-7.139-2.852-4.755-5.799-9.846-8.848-15.271-3.049-5.424-6.377-11.47-9.995-18.131-3.615-6.658-6.468-11.799-8.564-15.415-6.658-13.321-11.701-20.557-15.128-21.695-1.333-0.571-3.333-0.859-5.995-0.859-5.142 0-11.85 0.95-20.129 2.856-8.282 1.903-14.799 3.899-19.558 5.996-9.517 3.995-19.604 15.605-30.264 34.826-9.707 17.888-14.56 35.593-14.56 53.102 0 5.135 0.333 10.131 0.999 14.989 0.666 4.853 1.856 10.326 3.571 16.418 1.712 6.09 3.093 10.614 4.137 13.56 1.045 2.948 2.996 8.229 5.852 15.845 2.852 7.614 4.567 12.275 5.138 13.988 6.661 18.654 14.56 35.307 23.695 49.964 15.03 24.362 35.541 49.539 61.521 75.521 25.981 25.98 51.153 46.49 75.517 61.526 14.655 9.134 31.314 17.032 49.965 23.698 1.714 0.568 6.375 2.279 13.986 5.141 7.614 2.854 12.897 4.805 15.845 5.852 2.949 1.048 7.474 2.43 13.559 4.145 6.098 1.715 11.566 2.905 16.419 3.576 4.856 0.657 9.853 0.996 14.989 0.996 17.508 0 35.214-4.856 53.105-14.562 19.219-10.656 30.826-20.745 34.823-30.269 2.102-4.754 4.093-11.273 5.996-19.555 1.909-8.278 2.857-14.985 2.857-20.126 6e-3 -2.673-0.281-4.668-0.855-6.012z"/>
	</symbol>

	<symbol id="close" viewBox="0 0 212.982 212.982">
		<path d="m131.8 106.49l75.936-75.936c6.99-6.99 6.99-18.323 0-25.312-6.99-6.99-18.322-6.99-25.312 0l-75.937 75.937-75.937-75.938c-6.99-6.99-18.322-6.99-25.312 0-6.989 6.99-6.989 18.323 0 25.312l75.937 75.936-75.937 75.937c-6.989 6.99-6.989 18.323 0 25.312 6.99 6.99 18.322 6.99 25.312 0l75.937-75.937 75.937 75.937c6.989 6.99 18.322 6.99 25.312 0s6.99-18.322 0-25.312l-75.936-75.936z" clip-rule="evenodd" fill-rule="evenodd"/>
	</symbol>

	<symbol id="close" viewBox="0 0 212.982 212.982">
		<path d="m131.8 106.49l75.936-75.936c6.99-6.99 6.99-18.323 0-25.312-6.99-6.99-18.322-6.99-25.312 0l-75.937 75.937-75.937-75.938c-6.99-6.99-18.322-6.99-25.312 0-6.989 6.99-6.989 18.323 0 25.312l75.937 75.936-75.937 75.937c-6.989 6.99-6.989 18.323 0 25.312 6.99 6.99 18.322 6.99 25.312 0l75.937-75.937 75.937 75.937c6.989 6.99 18.322 6.99 25.312 0s6.99-18.322 0-25.312l-75.936-75.936z" clip-rule="evenodd" fill-rule="evenodd"/>
	</symbol>

	<symbol id="geo" viewBox="0 0 612 612">
		<path d="m516.32 337.52l94.233 193.58c3.832 7.873-0.196 14.314-8.952 14.314h-591.2c-8.756 0-12.785-6.441-8.952-14.314l94.234-193.58c1.499-3.079 5.528-5.599 8.952-5.599h80.801c2.49 0 5.853 1.559 7.483 3.442 5.482 6.335 11.066 12.524 16.634 18.65 5.288 5.815 10.604 11.706 15.878 17.735h-95.891c-3.425 0-7.454 2.519-8.952 5.599l-62.426 128.24h495.67l-62.421-128.24c-1.498-3.08-5.527-5.599-8.953-5.599h-96.108c5.273-6.029 10.591-11.92 15.879-17.735 5.585-6.144 11.2-12.321 16.695-18.658 1.628-1.878 4.984-3.434 7.47-3.434h80.971c3.423 0 7.451 2.518 8.95 5.599zm-71.775-132.29c0 105.78-88.058 125.61-129.47 227.26-3.365 8.26-14.994 8.218-18.36-0.04-37.359-91.651-112.64-116.78-127.04-198.43-14.181-80.379 41.471-159.12 122.73-166.8 82.64-7.812 152.14 56.979 152.14 138zm-65.427 0c0-40.436-32.779-73.216-73.216-73.216s-73.216 32.78-73.216 73.216c0 40.437 32.779 73.216 73.216 73.216s73.216-32.779 73.216-73.216z"/>
	</symbol>

	<symbol id="geo-open" viewBox="0 0 80 80">
		<path d="m40 0c-13.809 0-25 11.194-25 25 0 23.87 25 55 25 55s25-31.13 25-55c0-13.806-11.193-25-25-25zm0 38.8c-7.457 0-13.5-6.044-13.5-13.5s6.043-13.5 13.5-13.5c7.455 0 13.5 6.044 13.5 13.5s-6.045 13.5-13.5 13.5z"/>
	</symbol>

	<symbol id="mob-menu" viewBox="0 0 124 124">
		<path d="M112,6H12C5.4,6,0,11.4,0,18s5.4,12,12,12h100c6.6,0,12-5.4,12-12S118.6,6,112,6z"/>
		<path d="m112 50h-100c-6.6 0-12 5.4-12 12s5.4 12 12 12h100c6.6 0 12-5.4 12-12s-5.4-12-12-12z"/>
		<path d="m112 94h-100c-6.6 0-12 5.4-12 12s5.4 12 12 12h100c6.6 0 12-5.4 12-12s-5.4-12-12-12z"/>
	</symbol>

	<symbol id="site" viewBox="0 0 209.281 209.281">
		<path d="m203.46 139.06c3.768-10.786 5.824-22.369 5.824-34.425s-2.056-23.639-5.824-34.425c-0.092-0.324-0.201-0.64-0.333-0.944-14.534-40.345-53.191-69.271-98.482-69.271s-83.949 28.926-98.482 69.271c-0.132 0.305-0.242 0.62-0.333 0.944-3.768 10.786-5.824 22.369-5.824 34.425s2.056 23.639 5.824 34.425c0.092 0.324 0.201 0.64 0.333 0.944 14.534 40.346 53.191 69.271 98.482 69.271s83.948-28.926 98.482-69.271c0.132-0.304 0.241-0.619 0.333-0.944zm-98.815 55.216c-3.985 0-10.41-7.212-15.78-23.324-2.592-7.775-4.667-16.713-6.179-26.436h43.918c-1.512 9.723-3.587 18.66-6.178 26.436-5.371 16.112-11.796 23.324-15.781 23.324zm-23.779-64.76c-0.721-7.998-1.102-16.342-1.102-24.881s0.381-16.883 1.102-24.881h47.557c0.721 7.998 1.102 16.342 1.102 24.881s-0.381 16.883-1.102 24.881h-47.557zm-65.861-24.88c0-8.63 1.229-16.978 3.516-24.881h47.3c-0.701 8.163-1.057 16.529-1.057 24.881s0.355 16.718 1.057 24.881h-47.3c-2.287-7.904-3.516-16.251-3.516-24.881zm89.64-89.641c3.985 0 10.411 7.212 15.781 23.324 2.591 7.775 4.667 16.713 6.178 26.435h-43.919c1.512-9.723 3.587-18.66 6.179-26.435 5.371-16.112 11.796-23.324 15.781-23.324zm38.823 64.76h47.3c2.287 7.903 3.516 16.251 3.516 24.881s-1.229 16.978-3.516 24.881h-47.3c0.701-8.163 1.057-16.529 1.057-24.881s-0.356-16.718-1.057-24.881zm41.439-15h-43.16c-2.668-18.397-7.245-34.902-13.666-46.644 24.895 6.749 45.52 23.98 56.826 46.644zm-103.7-46.645c-6.421 11.742-10.998 28.247-13.666 46.645h-43.16c11.307-22.664 31.931-39.895 56.826-46.645zm-56.826 126.41h43.16c2.668 18.397 7.245 34.902 13.666 46.645-24.895-6.75-45.519-23.98-56.826-46.645zm103.7 46.645c6.421-11.742 10.998-28.247 13.666-46.645h43.16c-11.306 22.665-31.931 39.895-56.826 46.645z"/>
	</symbol>
</svg>